<svg xmlns="http://www.w3.org/2000/svg" width="46" height="46" viewBox="0 0 46 46">
  <path id="Exclusion_1" data-name="Exclusion 1" d="M23,46A23,23,0,0,1,6.737,6.737,23,23,0,1,1,39.263,39.263,22.849,22.849,0,0,1,23,46ZM22.8,6a16.671,16.671,0,0,0-11.344,4.407c-.168.147-.352.32-.532.5A16.786,16.786,0,0,0,6.044,24.025c0,.007,0,.014,0,.022s0,.021,0,.032v.008a.091.091,0,0,0,0,.015A16.739,16.739,0,0,0,10.9,34.688c.3.3.567.545.8.743a16.493,16.493,0,0,0,9.867,4.146c.424.031.844.047,1.25.047a16.764,16.764,0,0,0,11.9-4.952,2.72,2.72,0,0,0,.207-.223,16.817,16.817,0,0,0,4.646-12.842c0-.009,0-.018,0-.026s0-.017,0-.026,0-.006,0-.009,0-.006,0-.009a16.471,16.471,0,0,0-4.1-9.788c-.223-.266-.465-.528-.763-.826a16.758,16.758,0,0,0-10.6-4.869H24.1l-.022,0-.029,0C23.637,6.015,23.218,6,22.8,6Zm.016,31.478h-.132a14.6,14.6,0,0,1,.244-2.82l.3.105a1.06,1.06,0,0,0,.355.06,1.072,1.072,0,0,0,.355-2.083l-.452-.158a14.308,14.308,0,0,1,1.2-2.632l.239.2a1.071,1.071,0,1,0,1.356-1.659l-.373-.3c.257-.32.507-.608.765-.884a3.813,3.813,0,0,1,.3-.311c.32-.319.673-.636,1.081-.97l.16.272a1.072,1.072,0,0,0,1.467.378,1.072,1.072,0,0,0,.379-1.468l-.245-.414a14.357,14.357,0,0,1,2.606-1.231l.056.3a1.072,1.072,0,0,0,1.052.874,1.152,1.152,0,0,0,.2-.017,1.074,1.074,0,0,0,.856-1.251l-.088-.472a14.35,14.35,0,0,1,2.8-.276h.171a14.671,14.671,0,0,1-1.053,5.545A14.508,14.508,0,0,1,33.352,33a.715.715,0,0,0-.083.1l-.1.1A14.563,14.563,0,0,1,22.821,37.477Zm-2.28-.17h0a14.475,14.475,0,0,1-7.439-3.5c-.217-.183-.428-.379-.685-.635a14.488,14.488,0,0,1-4.1-8.11,16.837,16.837,0,0,0,3.4-.361l.22.623a1.072,1.072,0,0,0,1.012.719,1.047,1.047,0,0,0,.353-.06,1.071,1.071,0,0,0,.659-1.364l-.174-.493a16.278,16.278,0,0,0,3.247-1.542l.427.522a1.071,1.071,0,1,0,1.662-1.352l-.327-.4c.37-.3.706-.588,1-.868.13-.112.262-.242.349-.33a15.566,15.566,0,0,0,1.3-1.483l.572.337a1.071,1.071,0,1,0,1.088-1.846l-.435-.257a16.573,16.573,0,0,0,1.514-3.258l.629.119a1.054,1.054,0,0,0,.2.019,1.072,1.072,0,0,0,.2-2.126l-.461-.086a16.541,16.541,0,0,0,.331-3.254,14.541,14.541,0,0,1,8.111,4.117c.256.256.457.474.653.708a14.439,14.439,0,0,1,3.462,7.421H37.3a16.52,16.52,0,0,0-3.189.316l-.076-.4a1.072,1.072,0,0,0-1.055-.874,1.1,1.1,0,0,0-.194.017,1.074,1.074,0,0,0-.858,1.25l.1.558a16.553,16.553,0,0,0-3.3,1.506l-.211-.355a1.072,1.072,0,0,0-1.467-.378,1.073,1.073,0,0,0-.379,1.468l.287.487a16.1,16.1,0,0,0-1.478,1.289,4.766,4.766,0,0,0-.411.427c-.269.288-.545.607-.821.949l-.311-.255a1.072,1.072,0,0,0-1.355,1.66l.435.354a16.359,16.359,0,0,0-1.553,3.285l-.389-.137a1.071,1.071,0,1,0-.714,2.02l.536.189a16.554,16.554,0,0,0-.359,3.364ZM8.265,22.912H8.147a14.648,14.648,0,0,1,4.3-10.489c.121-.121.268-.265.447-.42A14.573,14.573,0,0,1,22.8,8.143l.065,0,.065,0a14.455,14.455,0,0,1-.289,3.029l-.417-.078a1.084,1.084,0,0,0-.2-.019,1.072,1.072,0,0,0-.2,2.124l.24.045a14.452,14.452,0,0,1-1.24,2.569l-.334-.2a1.068,1.068,0,0,0-.543-.149,1.078,1.078,0,0,0-.924.527,1.071,1.071,0,0,0,.378,1.467l.187.111a13.555,13.555,0,0,1-.957,1.059l-.012.012c-.069.069-.148.148-.262.248-.278.264-.58.525-.922.8l-.241-.3a1.071,1.071,0,0,0-1.654,1.362l.126.155a14.156,14.156,0,0,1-2.593,1.19l-.125-.355a1.07,1.07,0,0,0-1.369-.651,1.071,1.071,0,0,0-.652,1.368L11,22.66A14.73,14.73,0,0,1,8.265,22.912Z" opacity="1"/>
</svg>
