<svg xmlns="http://www.w3.org/2000/svg" width="46" height="46" viewBox="0 0 46 46">
  <path id="Exclusion_5" data-name="Exclusion 5" d="M23,46A23,23,0,0,1,6.737,6.737,23,23,0,1,1,39.263,39.263,22.849,22.849,0,0,1,23,46ZM22.843,6c-.319,0-.629.014-.92.041A16.667,16.667,0,0,0,17.1,7.055a16.3,16.3,0,0,0-2.068.933l-.012.006L15,8a16.432,16.432,0,0,0-3.09,2.128c-.28.241-.509.45-.7.641a16.7,16.7,0,0,0-2.534,3.083l0,.009,0,.005,0,.006a16.524,16.524,0,0,0-2.209,5.249A16.877,16.877,0,0,0,6,23c0,.106,0,.22.011.335.007.494.036.975.086,1.43a16.931,16.931,0,0,0,5.349,10.717l.147.131c.1.086.194.174.289.255a17.149,17.149,0,0,0,1.526,1.183,16.392,16.392,0,0,0,3.863,1.976,16.778,16.778,0,0,0,3.219.8c.474.071.952.122,1.381.147.4.037.777.047,1.131.053a17.135,17.135,0,0,0,4.452-.59,16.457,16.457,0,0,0,3.321-1.3.827.827,0,0,0,.124-.066,17.045,17.045,0,0,0,7.978-8.942,16.82,16.82,0,0,0,.818-2.826c.035-.174.071-.349.108-.524a12.375,12.375,0,0,0,.31-2.013,1.764,1.764,0,0,1,.068-.316,1.4,1.4,0,0,0,.068-.357v-.07a16.917,16.917,0,0,0-.653-4.245.368.368,0,0,0-.053,0,.5.5,0,0,1-.066,0,.24.24,0,0,1-.006-.029,16.879,16.879,0,0,0-2.65-5.637c-.014-.019-.029-.038-.044-.056l0-.005a16.79,16.79,0,0,0-2.645-2.894A17.03,17.03,0,0,0,32.6,8.968,16.785,16.785,0,0,0,23.041,6l-.2,0Zm.172,32.393c-.094,0-.2,0-.313-.008a19.347,19.347,0,0,0,4.687-6.206c.161-.312.312-.646.45-.993a19.459,19.459,0,0,0,1.454-6.61c.024-.294.024-.607.024-.858,0-.164,0-.308,0-.44a16.936,16.936,0,0,1,2.641.461.8.8,0,0,0,.011.223,18.476,18.476,0,0,1,.386,3.705l0,.133v.027c0,.184-.007.374-.029.606-.014.337-.034.73-.085,1.121a17.435,17.435,0,0,1-2.37,7.214,14.955,14.955,0,0,1-2.836,1.092A15.47,15.47,0,0,1,23.015,38.393ZM20.4,38.155h0a15.281,15.281,0,0,1-2.583-.67,14.688,14.688,0,0,1-2.4-1.106,19.171,19.171,0,0,0,2.006-1.521,16.723,16.723,0,0,0,1.288-1.212c.376-.388.739-.8,1.111-1.253a19.331,19.331,0,0,0,1.156-1.555,19.087,19.087,0,0,0,1.4-2.46c.245-.514.468-1.045.664-1.578a18.154,18.154,0,0,0,.884-3.23,17.072,17.072,0,0,1,3.467-.373c.048,0,.1,0,.143,0s.094,0,.142,0c0,.194,0,.385,0,.513v.028c0,.229,0,.465-.021.728a17.97,17.97,0,0,1-1.337,6.1c-.124.31-.254.6-.4.876a17.805,17.805,0,0,1-4.5,5.883c-.309.267-.645.536-1.027.822ZM13.916,35.4h0c-.379-.28-.687-.524-.968-.769-.087-.075-.173-.152-.256-.226l-.007-.006-.141-.126a15.308,15.308,0,0,1-4.3-6.98,19.208,19.208,0,0,0,2.794,2.158,7.006,7.006,0,0,0,.722.446,19.569,19.569,0,0,0,6.088,2.283l-.03.033c-.09.1-.182.2-.275.3a15.622,15.622,0,0,1-1.177,1.108A17.841,17.841,0,0,1,13.916,35.4Zm18.616-.329v0a18.957,18.957,0,0,0,1.326-5.329c.057-.444.078-.889.089-1.185.025-.239.03-.479.034-.724l0-.148a20.469,20.469,0,0,0-.3-3.407,17.616,17.616,0,0,1,2.3,1,18.576,18.576,0,0,1,1.993,1.236,15.321,15.321,0,0,1-4.935,8.145c-.162.14-.326.27-.508.413ZM19.042,30.741h0a.8.8,0,0,0-.162-.042,17.926,17.926,0,0,1-6.323-2.231,5.573,5.573,0,0,1-.572-.352c-.017-.013-.034-.024-.052-.035A17.617,17.617,0,0,1,7.7,24.34c-.034-.385-.052-.732-.055-1.063,0-.028,0-.056-.005-.083a1.469,1.469,0,0,1-.005-.164V23a15.3,15.3,0,0,1,.409-3.5A15.008,15.008,0,0,1,9.128,16.42a19.409,19.409,0,0,0,7.951,10.047,6.631,6.631,0,0,0,.741.454,20.193,20.193,0,0,0,2.764,1.328l.009,0,.01,0a18.139,18.139,0,0,1-.981,1.678c-.169.253-.359.518-.578.81Zm2.25-3.956h0a.827.827,0,0,0-.119-.061,18.9,18.9,0,0,1-2.561-1.233,5.693,5.693,0,0,1-.62-.379,17.752,17.752,0,0,1-7.745-10.661,15.239,15.239,0,0,1,2.107-2.512c.182-.181.386-.369.625-.572a14.845,14.845,0,0,1,1.715-1.283c.052.4.115.787.187,1.157,0,.014.005.027.009.039a.31.31,0,0,0,.006.036,18.411,18.411,0,0,0,.716,2.672c.184.543.409,1.109.669,1.68a18.866,18.866,0,0,0,1.666,3,19.574,19.574,0,0,0,1.266,1.647,19.855,19.855,0,0,0,3.114,2.921,16.6,16.6,0,0,1-.814,2.992c-.065.176-.136.351-.205.521l-.014.034Zm17.047-2.047h0c-.5-.325-1.062-.629-1.594-.91a19.113,19.113,0,0,0-2.694-1.164c-.292-.1-.581-.195-.859-.274-.232-.074-.475-.144-.724-.208a18.074,18.074,0,0,0-3.933-.59c-.333-.018-.682-.02-.948-.02a19.7,19.7,0,0,0-4.178.442,18.256,18.256,0,0,1-2.958-2.761c-.074-.086-.148-.179-.22-.269l-.1-.121.056-.027a17.845,17.845,0,0,1,8.272-2.049c.479,0,.965.02,1.443.059a12.177,12.177,0,0,1,1.805.241,17.1,17.1,0,0,1,2.741.724,18.8,18.8,0,0,1,3.627,1.662,15.308,15.308,0,0,1,.536,3.553v.094a.859.859,0,0,1-.063.267,1.178,1.178,0,0,0-.071.283,5.251,5.251,0,0,1-.08.653c-.023.136-.046.276-.062.414ZM19.173,17.551h0A17.188,17.188,0,0,1,17.771,15c-.123-.271-.232-.525-.332-.778a.786.786,0,0,0,.184-.1,17.269,17.269,0,0,1,2.236-1.541l.162-.089.032-.018c.151-.083.306-.17.493-.258a17.366,17.366,0,0,1,4.375-1.609,17.682,17.682,0,0,1,3.893-.435,18.129,18.129,0,0,1,3.014.255c.447.317.861.639,1.228.958a15.109,15.109,0,0,1,2.43,2.67c.015.021.032.043.054.069A15.284,15.284,0,0,1,37.22,17.2a19.817,19.817,0,0,0-2.231-.929,18.514,18.514,0,0,0-2.983-.788,13.514,13.514,0,0,0-1.97-.262c-.523-.043-1.053-.064-1.577-.064a19.4,19.4,0,0,0-9,2.224L19.4,17.4a.8.8,0,0,0-.23.148ZM16.9,12.624h0c-.177-.6-.305-1.12-.394-1.59a1.035,1.035,0,0,0-.029-.146,16.735,16.735,0,0,1-.23-1.679,14.743,14.743,0,0,1,1.421-.621,15.128,15.128,0,0,1,4.384-.916c.253-.024.518-.036.812-.036h.167a15.26,15.26,0,0,1,5.19.913,19.357,19.357,0,0,0-3.654.464,18.75,18.75,0,0,0-4.747,1.741c-.194.09-.39.2-.591.309l-.169.094A18.672,18.672,0,0,0,16.9,12.623Z" opacity="1"/>
</svg>
