<svg xmlns="http://www.w3.org/2000/svg" width="46" height="46" viewBox="0 0 46 46">
  <path id="Exclusion_7" data-name="Exclusion 7" d="M23,46A23,23,0,0,1,6.737,6.737,23,23,0,1,1,39.263,39.263,22.849,22.849,0,0,1,23,46ZM25.209,9.158h0a.054.054,0,0,0,0,.012.046.046,0,0,1,0,.012A19.75,19.75,0,0,0,15,14.64a20.552,20.552,0,0,0-1.961,2.243A18.848,18.848,0,0,0,9.487,24.87,5.232,5.232,0,0,1,9,27.55v.005a23.607,23.607,0,0,0,.923,6.908.779.779,0,0,0,.079.17.847.847,0,0,1,.07.142.766.766,0,0,0,.5.464,19.7,19.7,0,0,0,6.062.85,3.741,3.741,0,0,0,.589-.064,3.753,3.753,0,0,1,.592-.064c.112,0,.224,0,.336,0s.226,0,.34,0a5.066,5.066,0,0,0,.652-.035.06.06,0,0,1,.034.017.06.06,0,0,0,.034.019l.3-.037h.006c.321-.039.652-.08.98-.143,0,.006,0,.01,0,.011A19.542,19.542,0,0,0,36.047,20.145a13.871,13.871,0,0,0,.234-2.679V17.46a14.476,14.476,0,0,0-.8-7.211.65.65,0,0,0-.411-.47l-.107-.038A1.4,1.4,0,0,0,34.8,9.69a20.232,20.232,0,0,0-5.912-.947c-.321,0-.646.009-.966.027-.009,0-.014-.023-.019-.045s-.011-.046-.019-.046a4.009,4.009,0,0,0-.834.12c-.172.037-.35.075-.523.1-.306.039-.612.107-.908.173-.136.03-.276.062-.413.089ZM16.522,34.717h-.1c-.427,0-.812-.021-1.179-.049l-.031,0-.035,0c-.365-.029-.736-.071-1.136-.129l-.051-.007-.108-.015c-.373-.057-.753-.127-1.131-.21l-.213-.049c-.416-.1-.788-.192-1.137-.294-.1-.348-.2-.718-.293-1.132-.018-.078-.036-.154-.052-.229-.079-.363-.148-.737-.206-1.111-.006-.043-.012-.085-.017-.127l-.01-.072c-.051-.362-.091-.717-.12-1.057,0-.024,0-.047-.006-.07s0-.044-.006-.066c-.026-.341-.042-.711-.048-1.131,0-.041,0-.082,0-.123a18.312,18.312,0,0,1,3.268,2.6,18.235,18.235,0,0,1,2.61,3.275Zm1.644-.067h0a19.522,19.522,0,0,0-3.223-4.243,19.633,19.633,0,0,0-4.233-3.213l.008-.1c.015-.183.03-.372.052-.56l.03-.241c.005-.04.012-.08.019-.121s.011-.066.016-.1a18.583,18.583,0,0,1,8.45,8.452l-.1.016c-.039.007-.077.013-.115.018l-.245.03c-.19.023-.381.039-.565.054l-.092.007Zm2.6-.4h0a19.951,19.951,0,0,0-9.652-9.654,18.316,18.316,0,0,1,4.916-8.906c.329-.328.668-.642,1.007-.935a18.357,18.357,0,0,1,7.9-3.981,19.891,19.891,0,0,0,9.653,9.653c-.13.574-.285,1.132-.459,1.661a18.207,18.207,0,0,1-2.668,5.174c-.046.061-.095.121-.143.179s-.07.085-.1.128a18.318,18.318,0,0,1-1.543,1.765A18.766,18.766,0,0,1,27.6,31.118a18.143,18.143,0,0,1-6.835,3.127Zm-6.13-14.537a.731.731,0,0,0-.517,1.247l1.054,1.056c-.5.681-.911,1.289-1.262,1.858a.73.73,0,1,0,1.243.768c.29-.469.628-.971,1.064-1.579l.85.851A.731.731,0,1,0,18.1,22.878l-1-1c.59-.746,1.23-1.479,1.9-2.18l1.5,1.5a.731.731,0,0,0,1.034-1.033l-1.5-1.5c.7-.671,1.436-1.309,2.183-1.9l1.216,1.216a.731.731,0,1,0,1.034-1.033L23.4,15.879c.593-.426,1.1-.766,1.584-1.07a.731.731,0,0,0-.773-1.24c-.584.365-1.191.778-1.857,1.264L21.3,13.775a.731.731,0,0,0-1.033,1.033l.918.917c-.736.588-1.468,1.229-2.175,1.907L17.871,16.5a.731.731,0,0,0-1.033,1.034l1.134,1.133c-.677.707-1.318,1.437-1.906,2.172l-.913-.913A.726.726,0,0,0,14.637,19.709Zm20.232-.768h0a18.5,18.5,0,0,1-8.451-8.452l.093-.016c.037-.007.073-.013.11-.018l.206-.025.022,0c.207-.025.42-.041.626-.057l.061,0A19.794,19.794,0,0,0,30.751,14.6a19.657,19.657,0,0,0,4.244,3.217l-.009.105c-.015.18-.03.366-.052.552-.01.083-.02.166-.031.249-.005.042-.013.084-.02.127s-.01.057-.014.085Zm.193-2.764h0a18.475,18.475,0,0,1-3.275-2.684,12.242,12.242,0,0,1-2.606-3.352h.074a17.332,17.332,0,0,1,3.731.5.191.191,0,0,1,.062.034.2.2,0,0,0,.059.033c.364.082.733.191,1.09.3l.108.032c.1.322.189.684.293,1.138l.013.059.039.174c.081.377.15.75.205,1.109.006.041.012.082.017.123s.008.058.012.086c.05.355.089.707.117,1.046,0,.02,0,.039.006.058s.006.06.008.089c.026.344.041.715.047,1.133,0,.041,0,.082,0,.122Z" opacity="1"/>
</svg>
