<svg xmlns="http://www.w3.org/2000/svg" width="52.548" height="59.797" viewBox="0 0 52.548 59.797">
  <g id="calendar-alt" transform="translate(1 -3)">
    <g id="Path_1710" data-name="Path 1710" transform="translate(-1 3)" fill="#fff" stroke-linecap="square">
      <path d="M 46.91828536987305 58.92229843139648 L 5.630196571350098 58.92229843139648 C 3.008166790008545 58.92229843139648 0.8749966621398926 56.79998779296875 0.8749966621398926 54.19131088256836 L 0.8749966621398926 13.08065891265869 C 0.8749966621398926 10.47197914123535 3.008166790008545 8.349658966064453 5.630196571350098 8.349658966064453 L 11.26038646697998 8.349658966064453 L 12.13538646697998 8.349658966064453 L 12.13538646697998 7.474659442901611 L 12.13538646697998 1.401499271392822 C 12.13538646697998 1.116109251976013 12.3792667388916 0.8749992251396179 12.66793632507324 0.8749992251396179 L 17.35976600646973 0.8749992251396179 C 17.6484375 0.8749992251396179 17.89230728149414 1.116109251976013 17.89230728149414 1.401499271392822 L 17.89230728149414 7.474659442901611 L 17.89230728149414 8.349658966064453 L 18.76730728149414 8.349658966064453 L 33.78116607666016 8.349658966064453 L 34.65616607666016 8.349658966064453 L 34.65616607666016 7.474659442901611 L 34.65616607666016 1.401499271392822 C 34.65616607666016 1.116109251976013 34.9000358581543 0.8749992251396179 35.18870544433594 0.8749992251396179 L 39.88053512573242 0.8749992251396179 C 40.16920852661133 0.8749992251396179 40.4130859375 1.116109251976013 40.4130859375 1.401499271392822 L 40.4130859375 7.474659442901611 L 40.4130859375 8.349658966064453 L 41.2880859375 8.349658966064453 L 46.91828536987305 8.349658966064453 C 49.54030609130859 8.349658966064453 51.67347717285156 10.47197914123535 51.67347717285156 13.08065891265869 L 51.67347717285156 54.19131088256836 C 51.67347717285156 56.79998779296875 49.54030609130859 58.92229843139648 46.91828536987305 58.92229843139648 Z M 4.755196571350098 17.81165885925293 L 4.755196571350098 18.68665885925293 L 4.755196571350098 53.49055862426758 C 4.755196571350098 54.35942840576172 5.46342658996582 55.06631088256836 6.333966732025146 55.06631088256836 L 46.21450805664063 55.06631088256836 C 47.08504486083984 55.06631088256836 47.79328536987305 54.35942840576172 47.79328536987305 53.49055862426758 L 47.79328536987305 18.68665885925293 L 47.79328536987305 17.81165885925293 L 46.91828536987305 17.81165885925293 L 5.630196571350098 17.81165885925293 L 4.755196571350098 17.81165885925293 Z M 39.88053512573242 43.97298049926758 L 35.18870544433594 43.97298049926758 C 34.9000358581543 43.97298049926758 34.65616607666016 43.73186874389648 34.65616607666016 43.44647979736328 L 34.65616607666016 38.77481842041016 C 34.65616607666016 38.48942947387695 34.9000358581543 38.24831771850586 35.18870544433594 38.24831771850586 L 39.88053512573242 38.24831771850586 C 40.16920852661133 38.24831771850586 40.4130859375 38.48942947387695 40.4130859375 38.77481842041016 L 40.4130859375 43.44647979736328 C 40.4130859375 43.73186874389648 40.16920852661133 43.97298049926758 39.88053512573242 43.97298049926758 Z M 28.62014579772949 43.97298049926758 L 23.9283275604248 43.97298049926758 C 23.63965606689453 43.97298049926758 23.39577674865723 43.73186874389648 23.39577674865723 43.44647979736328 L 23.39577674865723 38.77481842041016 C 23.39577674865723 38.48942947387695 23.63965606689453 38.24831771850586 23.9283275604248 38.24831771850586 L 28.62014579772949 38.24831771850586 C 28.90881729125977 38.24831771850586 29.15269660949707 38.48942947387695 29.15269660949707 38.77481842041016 L 29.15269660949707 43.44647979736328 C 29.15269660949707 43.73186874389648 28.90881729125977 43.97298049926758 28.62014579772949 43.97298049926758 Z M 17.35976600646973 43.97298049926758 L 12.66793632507324 43.97298049926758 C 12.3792667388916 43.97298049926758 12.13538646697998 43.73186874389648 12.13538646697998 43.44647979736328 L 12.13538646697998 38.77481842041016 C 12.13538646697998 38.48942947387695 12.3792667388916 38.24831771850586 12.66793632507324 38.24831771850586 L 17.35976600646973 38.24831771850586 C 17.6484375 38.24831771850586 17.89230728149414 38.48942947387695 17.89230728149414 38.77481842041016 L 17.89230728149414 43.44647979736328 C 17.89230728149414 43.73186874389648 17.6484375 43.97298049926758 17.35976600646973 43.97298049926758 Z M 39.88053512573242 32.76099014282227 L 35.18870544433594 32.76099014282227 C 34.9000358581543 32.76099014282227 34.65616607666016 32.51987838745117 34.65616607666016 32.23448944091797 L 34.65616607666016 27.56281852722168 C 34.65616607666016 27.27742958068848 34.9000358581543 27.03631973266602 35.18870544433594 27.03631973266602 L 39.88053512573242 27.03631973266602 C 40.16920852661133 27.03631973266602 40.4130859375 27.27742958068848 40.4130859375 27.56281852722168 L 40.4130859375 32.23448944091797 C 40.4130859375 32.51987838745117 40.16920852661133 32.76099014282227 39.88053512573242 32.76099014282227 Z M 28.62014579772949 32.76099014282227 L 23.9283275604248 32.76099014282227 C 23.63965606689453 32.76099014282227 23.39577674865723 32.51987838745117 23.39577674865723 32.23448944091797 L 23.39577674865723 27.56281852722168 C 23.39577674865723 27.27742958068848 23.63965606689453 27.03631973266602 23.9283275604248 27.03631973266602 L 28.62014579772949 27.03631973266602 C 28.90881729125977 27.03631973266602 29.15269660949707 27.27742958068848 29.15269660949707 27.56281852722168 L 29.15269660949707 32.23448944091797 C 29.15269660949707 32.51987838745117 28.90881729125977 32.76099014282227 28.62014579772949 32.76099014282227 Z M 17.35976600646973 32.76099014282227 L 12.66793632507324 32.76099014282227 C 12.3792667388916 32.76099014282227 12.13538646697998 32.51987838745117 12.13538646697998 32.23448944091797 L 12.13538646697998 27.56281852722168 C 12.13538646697998 27.27742958068848 12.3792667388916 27.03631973266602 12.66793632507324 27.03631973266602 L 17.35976600646973 27.03631973266602 C 17.6484375 27.03631973266602 17.89230728149414 27.27742958068848 17.89230728149414 27.56281852722168 L 17.89230728149414 32.23448944091797 C 17.89230728149414 32.51987838745117 17.6484375 32.76099014282227 17.35976600646973 32.76099014282227 Z" stroke="none"/>
      <path d="M 46.91828536987305 58.04729843139648 C 49.05782699584961 58.04729843139648 50.79847717285156 56.31750869750977 50.79847717285156 54.19131088256836 L 50.79847717285156 13.08065891265869 C 50.79847717285156 10.95444965362549 49.05782699584961 9.224658966064453 46.91828536987305 9.224658966064453 L 41.2880859375 9.224658966064453 L 39.5380859375 9.224658966064453 L 39.5380859375 7.474659442901611 L 39.5380859375 1.749999165534973 L 35.53116607666016 1.749999165534973 L 35.53116607666016 7.474659442901611 L 35.53116607666016 9.224658966064453 L 33.78116607666016 9.224658966064453 L 18.76730728149414 9.224658966064453 L 17.01730728149414 9.224658966064453 L 17.01730728149414 7.474659442901611 L 17.01730728149414 1.749999165534973 L 13.01038646697998 1.749999165534973 L 13.01038646697998 7.474659442901611 L 13.01038646697998 9.224658966064453 L 11.26038646697998 9.224658966064453 L 5.630196571350098 9.224658966064453 C 3.490646600723267 9.224658966064453 1.749996662139893 10.95444965362549 1.749996662139893 13.08065891265869 L 1.749996662139893 54.19131088256836 C 1.749996662139893 56.31750869750977 3.490646600723267 58.04729843139648 5.630196571350098 58.04729843139648 L 46.91828536987305 58.04729843139648 M 3.880196571350098 16.93665885925293 L 5.630196571350098 16.93665885925293 L 46.91828536987305 16.93665885925293 L 48.66828536987305 16.93665885925293 L 48.66828536987305 18.68665885925293 L 48.66828536987305 53.49055862426758 C 48.66828536987305 54.8419075012207 47.56752777099609 55.94131088256836 46.21450805664063 55.94131088256836 L 6.333966732025146 55.94131088256836 C 4.980956554412842 55.94131088256836 3.880196571350098 54.8419075012207 3.880196571350098 53.49055862426758 L 3.880196571350098 18.68665885925293 L 3.880196571350098 16.93665885925293 M 39.5380859375 43.09798049926758 L 39.5380859375 39.12331771850586 L 35.53116607666016 39.12331771850586 L 35.53116607666016 43.09798049926758 L 39.5380859375 43.09798049926758 M 28.27769660949707 43.09798049926758 L 28.27769660949707 39.12331771850586 L 24.27077674865723 39.12331771850586 L 24.27077674865723 43.09798049926758 L 28.27769660949707 43.09798049926758 M 17.01730728149414 43.09798049926758 L 17.01730728149414 39.12331771850586 L 13.01038646697998 39.12331771850586 L 13.01038646697998 43.09798049926758 L 17.01730728149414 43.09798049926758 M 39.5380859375 31.88599014282227 L 39.5380859375 27.91131973266602 L 35.53116607666016 27.91131973266602 L 35.53116607666016 31.88599014282227 L 39.5380859375 31.88599014282227 M 28.27769660949707 31.88599014282227 L 28.27769660949707 27.91131973266602 L 24.27077674865723 27.91131973266602 L 24.27077674865723 31.88599014282227 L 28.27769660949707 31.88599014282227 M 17.01730728149414 31.88599014282227 L 17.01730728149414 27.91131973266602 L 13.01038646697998 27.91131973266602 L 13.01038646697998 31.88599014282227 L 17.01730728149414 31.88599014282227 M 46.91828536987305 59.79729843139648 L 5.630196571350098 59.79729843139648 C 2.521856784820557 59.79729843139648 -3.320922814964433e-06 57.28628921508789 -3.320922814964433e-06 54.19131088256836 L -3.320922814964433e-06 13.08065891265869 C -3.320922814964433e-06 9.985689163208008 2.521856784820557 7.474659442901611 5.630196571350098 7.474659442901611 L 11.26038646697998 7.474659442901611 L 11.26038646697998 1.401499271392822 C 11.26038646697998 0.630679190158844 11.89378643035889 -7.843017328923452e-07 12.66793632507324 -7.843017328923452e-07 L 17.35976600646973 -7.843017328923452e-07 C 18.1339168548584 -7.843017328923452e-07 18.76730728149414 0.630679190158844 18.76730728149414 1.401499271392822 L 18.76730728149414 7.474659442901611 L 33.78116607666016 7.474659442901611 L 33.78116607666016 1.401499271392822 C 33.78116607666016 0.630679190158844 34.41455841064453 -7.843017328923452e-07 35.18870544433594 -7.843017328923452e-07 L 39.88053512573242 -7.843017328923452e-07 C 40.65469741821289 -7.843017328923452e-07 41.2880859375 0.630679190158844 41.2880859375 1.401499271392822 L 41.2880859375 7.474659442901611 L 46.91828536987305 7.474659442901611 C 50.02662658691406 7.474659442901611 52.54847717285156 9.985689163208008 52.54847717285156 13.08065891265869 L 52.54847717285156 54.19131088256836 C 52.54847717285156 57.28628921508789 50.02662658691406 59.79729843139648 46.91828536987305 59.79729843139648 Z M 5.630196571350098 18.68665885925293 L 5.630196571350098 53.49055862426758 C 5.630196571350098 53.87596893310547 5.946896553039551 54.19131088256836 6.333966732025146 54.19131088256836 L 46.21450805664063 54.19131088256836 C 46.60157775878906 54.19131088256836 46.91828536987305 53.87596893310547 46.91828536987305 53.49055862426758 L 46.91828536987305 18.68665885925293 L 5.630196571350098 18.68665885925293 Z M 39.88053512573242 44.84798049926758 L 35.18870544433594 44.84798049926758 C 34.41455841064453 44.84798049926758 33.78116607666016 44.21730804443359 33.78116607666016 43.44647979736328 L 33.78116607666016 38.77481842041016 C 33.78116607666016 38.00399017333984 34.41455841064453 37.37331771850586 35.18870544433594 37.37331771850586 L 39.88053512573242 37.37331771850586 C 40.65469741821289 37.37331771850586 41.2880859375 38.00399017333984 41.2880859375 38.77481842041016 L 41.2880859375 43.44647979736328 C 41.2880859375 44.21730804443359 40.65469741821289 44.84798049926758 39.88053512573242 44.84798049926758 Z M 28.62014579772949 44.84798049926758 L 23.9283275604248 44.84798049926758 C 23.15416717529297 44.84798049926758 22.52077674865723 44.21730804443359 22.52077674865723 43.44647979736328 L 22.52077674865723 38.77481842041016 C 22.52077674865723 38.00399017333984 23.15416717529297 37.37331771850586 23.9283275604248 37.37331771850586 L 28.62014579772949 37.37331771850586 C 29.39430618286133 37.37331771850586 30.02769660949707 38.00399017333984 30.02769660949707 38.77481842041016 L 30.02769660949707 43.44647979736328 C 30.02769660949707 44.21730804443359 29.39430618286133 44.84798049926758 28.62014579772949 44.84798049926758 Z M 17.35976600646973 44.84798049926758 L 12.66793632507324 44.84798049926758 C 11.89378643035889 44.84798049926758 11.26038646697998 44.21730804443359 11.26038646697998 43.44647979736328 L 11.26038646697998 38.77481842041016 C 11.26038646697998 38.00399017333984 11.89378643035889 37.37331771850586 12.66793632507324 37.37331771850586 L 17.35976600646973 37.37331771850586 C 18.1339168548584 37.37331771850586 18.76730728149414 38.00399017333984 18.76730728149414 38.77481842041016 L 18.76730728149414 43.44647979736328 C 18.76730728149414 44.21730804443359 18.1339168548584 44.84798049926758 17.35976600646973 44.84798049926758 Z M 39.88053512573242 33.63599014282227 L 35.18870544433594 33.63599014282227 C 34.41455841064453 33.63599014282227 33.78116607666016 33.00531005859375 33.78116607666016 32.23448944091797 L 33.78116607666016 27.56281852722168 C 33.78116607666016 26.79199981689453 34.41455841064453 26.16131973266602 35.18870544433594 26.16131973266602 L 39.88053512573242 26.16131973266602 C 40.65469741821289 26.16131973266602 41.2880859375 26.79199981689453 41.2880859375 27.56281852722168 L 41.2880859375 32.23448944091797 C 41.2880859375 33.00531005859375 40.65469741821289 33.63599014282227 39.88053512573242 33.63599014282227 Z M 28.62014579772949 33.63599014282227 L 23.9283275604248 33.63599014282227 C 23.15416717529297 33.63599014282227 22.52077674865723 33.00531005859375 22.52077674865723 32.23448944091797 L 22.52077674865723 27.56281852722168 C 22.52077674865723 26.79199981689453 23.15416717529297 26.16131973266602 23.9283275604248 26.16131973266602 L 28.62014579772949 26.16131973266602 C 29.39430618286133 26.16131973266602 30.02769660949707 26.79199981689453 30.02769660949707 27.56281852722168 L 30.02769660949707 32.23448944091797 C 30.02769660949707 33.00531005859375 29.39430618286133 33.63599014282227 28.62014579772949 33.63599014282227 Z M 17.35976600646973 33.63599014282227 L 12.66793632507324 33.63599014282227 C 11.89378643035889 33.63599014282227 11.26038646697998 33.00531005859375 11.26038646697998 32.23448944091797 L 11.26038646697998 27.56281852722168 C 11.26038646697998 26.79199981689453 11.89378643035889 26.16131973266602 12.66793632507324 26.16131973266602 L 17.35976600646973 26.16131973266602 C 18.1339168548584 26.16131973266602 18.76730728149414 26.79199981689453 18.76730728149414 27.56281852722168 L 18.76730728149414 32.23448944091797 C 18.76730728149414 33.00531005859375 18.1339168548584 33.63599014282227 17.35976600646973 33.63599014282227 Z" stroke="none" fill="none"/>
    </g>
  </g>
</svg>
