<svg xmlns="http://www.w3.org/2000/svg" width="52.243" height="52.244" viewBox="0 0 52.243 52.244">
  <g id="Group_6833" data-name="Group 6833" transform="translate(1 1)">
    <g id="patch-34" transform="translate(0 0)">
      <line id="Line_471" data-name="Line 471" x1="16.758" y1="16.758" transform="translate(7.168 26.316)" fill="none" stroke="#fff" stroke-miterlimit="10" stroke-width="2"/>
      <line id="Line_472" data-name="Line 472" x2="16.758" y2="16.758" transform="translate(26.321 7.164)" fill="none" stroke="#fff" stroke-miterlimit="10" stroke-width="2"/>
      <ellipse id="Ellipse_633" data-name="Ellipse 633" cx="2.394" cy="2.394" rx="2.394" ry="2.394" transform="translate(22.73 15.543)" fill="#fff"/>
      <ellipse id="Ellipse_634" data-name="Ellipse 634" cx="2.394" cy="2.394" rx="2.394" ry="2.394" transform="translate(29.912 22.725)" fill="#fff"/>
      <ellipse id="Ellipse_635" data-name="Ellipse 635" cx="2.394" cy="2.394" rx="2.394" ry="2.394" transform="translate(15.548 22.725)" fill="#fff"/>
      <ellipse id="Ellipse_636" data-name="Ellipse 636" cx="2.394" cy="2.394" rx="2.394" ry="2.394" transform="translate(22.73 29.907)" fill="#fff"/>
      <path id="Path_1654" data-name="Path 1654" d="M14.4,51.856,4.414,41.869a4.789,4.789,0,0,1,0-6.772l30.68-30.68a4.789,4.789,0,0,1,6.772,0L51.852,14.4a4.789,4.789,0,0,1,0,6.772l-30.68,30.68A4.786,4.786,0,0,1,14.4,51.856Z" transform="translate(-3.011 -3.016)" fill="none" stroke="#fff" stroke-linecap="square" stroke-miterlimit="10" stroke-width="2"/>
    </g>
  </g>
</svg>
