<svg id="surface86977" xmlns="http://www.w3.org/2000/svg" width="100" height="100" viewBox="0 0 100 100">
  <path id="Path_1702" data-name="Path 1702" d="M4,0A3.968,3.968,0,0,0,1.188,1.188a3.961,3.961,0,0,0,0,5.625L11.625,17.25c-.008.016.008.047,0,.063l5.688,5.625c-.008.016.008.047,0,.062L31.875,37.5c-.008.016.008.047,0,.063l8.813,8.75c-.008.016.008.047,0,.062l52.5,52.438a3.977,3.977,0,0,0,5.625-5.625L88.375,82.75a52,52,0,0,0-1.562-67.375A3.971,3.971,0,0,0,81.188,15a4.042,4.042,0,0,0-.313,5.688,44.084,44.084,0,0,1,1.813,56.375l-8.875-8.875A29.961,29.961,0,0,0,72.5,30.125a4.007,4.007,0,1,0-6,5.313A22.06,22.06,0,0,1,68.125,62.5L59.25,53.625A9.817,9.817,0,0,0,60,50,10.009,10.009,0,0,0,50,40a9.817,9.817,0,0,0-3.625.75L6.813,1.188A3.968,3.968,0,0,0,4,0ZM9.188,20.5A52,52,0,0,0,13.25,84.688a4.066,4.066,0,0,0,3,1.375A3.908,3.908,0,0,0,18.875,85a3.968,3.968,0,0,0,.313-5.625A43.905,43.905,0,0,1,15,26.313Zm14.75,14.75a29.847,29.847,0,0,0,3.75,34.813,3.909,3.909,0,0,0,2.937,1.312,3.994,3.994,0,0,0,2.688-1,4.05,4.05,0,0,0,.312-5.687,21.866,21.866,0,0,1-3.75-23.5ZM40.125,51.438a10.062,10.062,0,0,0,8.438,8.437Zm0,0" fill="#9c9c9c"/>
</svg>
