<svg xmlns="http://www.w3.org/2000/svg" width="70.016" height="91.984" viewBox="0 0 70.016 91.984">
  <path id="Path_2410WH" data-name="Path 2410WH" d="M35.008.035a9.887,9.887,0,0,0-9.035,5.988H18a2.053,2.053,0,0,0-1.984,1.984v2.02H1.984A2.078,2.078,0,0,0,0,12.012V90.035A2.079,2.079,0,0,0,1.984,92.02H68a2.085,2.085,0,0,0,2.02-1.984V12.012A2.085,2.085,0,0,0,68,10.028H54V8.008a2.079,2.079,0,0,0-1.984-1.984H44.043A9.887,9.887,0,0,0,35.008.035Zm0,3.968a5.976,5.976,0,0,1,5.811,4.5,2.051,2.051,0,0,0,1.949,1.524H50v5.988H19.984V10.028h7.264A2.084,2.084,0,0,0,29.2,8.5,5.946,5.946,0,0,1,35.008,4ZM4,14.032H16.016v4A2.053,2.053,0,0,0,18,20.02H52.016A2.079,2.079,0,0,0,54,18.035v-4H66.012V88.016H4ZM9.992,29.02A2.133,2.133,0,0,0,8.008,31V45.035A2.079,2.079,0,0,0,9.992,47.02h18a2.085,2.085,0,0,0,2.02-1.984V31a2.085,2.085,0,0,0-2.02-1.984Zm2.02,4h14v9.992h-14ZM36,36.035A1.984,1.984,0,0,0,36,40H59.988a1.985,1.985,0,1,0,0-3.968ZM31.819,54.992a2.011,2.011,0,0,0-1.488.886L22.465,67.252l-4.323-2.906a2.151,2.151,0,0,0-2.835.531,2.115,2.115,0,0,0,.567,2.8l5.988,4a2.106,2.106,0,0,0,2.8-.531l9-13a1.989,1.989,0,0,0-1.843-3.154ZM9.992,57.012a2.195,2.195,0,0,0-1.984,2.02v18a2.079,2.079,0,0,0,1.984,1.984h18a2.085,2.085,0,0,0,2.02-1.984v-2.02a2.091,2.091,0,0,0-2.02-2.02,2.035,2.035,0,0,0-1.984,2.02h-14v-14H22a2.059,2.059,0,0,0,2.02-1.984A2.091,2.091,0,0,0,22,57.012Zm26.008,9a2,2,0,0,0,0,4H59.988a2,2,0,1,0,0-4Z" transform="translate(0 -0.036)" fill="#BCA164" stroke="#BCA164"/>
</svg>
