<svg xmlns="http://www.w3.org/2000/svg" width="22.001" height="22.828" viewBox="0 0 22.001 22.828">
  <g id="direction-53" transform="translate(-1 -0.586)">
    <path id="Path_1169" data-name="Path 1169" d="M22.707,6.293,17,.586,15.586,2l4,4H2A1,1,0,0,0,2,8H19.586l-4,4L17,13.414l5.707-5.707A1,1,0,0,0,22.707,6.293Z" fill="#dedbdb"/>
    <path id="Path_1170" data-name="Path 1170" d="M1.293,16.293,7,10.586,8.414,12l-4,4H22a1,1,0,0,1,0,2H4.414l4,4L7,23.414,1.293,17.707A1,1,0,0,1,1.293,16.293Z" fill="#dedbdb"/>
  </g>
</svg>
