<svg xmlns="http://www.w3.org/2000/svg" width="20" height="20" viewBox="0 0 20 20">
  <g id="Group_6187" data-name="Group 6187" transform="translate(-33 -62)">
    <g id="Attendance_Going" data-name="Attendance Going" transform="translate(15 -582)">
      <g id="images-1" transform="translate(20 646)" fill="#43acd7">
        <path d="M 8 17 C 3.03737998008728 17 -1 12.96261978149414 -1 8 C -1 3.03737998008728 3.03737998008728 -1 8 -1 C 12.96261978149414 -1 17 3.03737998008728 17 8 C 17 12.96261978149414 12.96261978149414 17 8 17 Z" stroke="none"/>
        <path d="M 8 0 C 3.581720352172852 0 0 3.581720352172852 0 8 C 0 12.41827964782715 3.581720352172852 16 8 16 C 12.41827964782715 16 16 12.41827964782715 16 8 C 16 3.581720352172852 12.41827964782715 0 8 0 M 8 -2 C 13.51401996612549 -2 18 2.485980033874512 18 8 C 18 13.51401996612549 13.51401996612549 18 8 18 C 2.485980033874512 18 -2 13.51401996612549 -2 8 C -2 2.485980033874512 2.485980033874512 -2 8 -2 Z" stroke="none" fill="#fff"/>
      </g>
      <line id="Line_397" data-name="Line 397" y1="5" x2="5" transform="translate(25.5 651.5)" fill="none" stroke="#fff" stroke-linecap="round" stroke-width="1"/>
    </g>
  </g>
</svg>
