<svg xmlns="http://www.w3.org/2000/svg" width="29.5" height="29.086" viewBox="0 0 29.5 29.086">
  <g id="megaphone" transform="translate(-0.25 -0.835)">
    <path id="Path_1656" data-name="Path 1656" d="M12.064,19,15.2,26.78a2.49,2.49,0,0,1-1.379,3.233h0a2.489,2.489,0,0,1-3.236-1.379L6.667,19" transform="translate(-0.378 -1.133)" fill="none" stroke="#15233c" stroke-miterlimit="10" stroke-width="1.5"/>
    <path id="Path_1657" data-name="Path 1657" d="M13.133,6.667H6.6a5.6,5.6,0,0,0-5.6,5.6H1a5.6,5.6,0,0,0,5.6,5.6h6.533L23.4,22.533V2Z" transform="translate(0)" fill="none" stroke="#15233c" stroke-linecap="square" stroke-miterlimit="10" stroke-width="1.5"/>
    <path id="Path_1658" data-name="Path 1658" d="M28,10a2.8,2.8,0,1,1,0,5.6" transform="translate(-1.8 -0.533)" fill="none" stroke="#15233c" stroke-miterlimit="10" stroke-width="1.5"/>
  </g>
</svg>
