<svg xmlns="http://www.w3.org/2000/svg" width="30.038" height="26" viewBox="0 0 30.038 26">
  <g id="swipe-bottom" transform="translate(-0.586 -3)">
    <line id="Line_394" data-name="Line 394" y1="13" transform="translate(6 3)" fill="none" stroke="#15233c" stroke-miterlimit="10" stroke-width="2"/>
    <path id="Path_1334" data-name="Path 1334" d="M10,12,6,16,2,12" fill="none" stroke="#15233c" stroke-linecap="square" stroke-miterlimit="10" stroke-width="2"/>
    <line id="Line_395" data-name="Line 395" y2="3" transform="translate(15 16)" fill="none" stroke="#15233c" stroke-linecap="square" stroke-miterlimit="10" stroke-width="2"/>
    <path id="Path_1335" data-name="Path 1335" d="M27.128,14.478,19,13V6a2,2,0,0,0-2-2h0a2,2,0,0,0-2,2V16H13a2,2,0,0,0-2,2v2.9a6,6,0,0,0,1.315,3.748L15,28H28l1.556-10.114A3,3,0,0,0,27.128,14.478Z" fill="none" stroke="#15233c" stroke-linecap="square" stroke-miterlimit="10" stroke-width="2"/>
  </g>
</svg>
