<svg xmlns="http://www.w3.org/2000/svg" width="19.508" height="17.71" viewBox="0 0 19.508 17.71">
  <g id="history" transform="translate(0.292 -3.065)">
    <g id="Group_6802" data-name="Group 6802" transform="translate(0 3.315)">
      <path id="Path_1734" data-name="Path 1734" d="M10.36,3.315a8.609,8.609,0,0,0-8.6,8.581,9.961,9.961,0,0,0,.309,2.67L.905,13.891A.6.6,0,1,0,.3,14.931l2.716,1.584.017.007a.6.6,0,0,0,.09.038.643.643,0,0,0,.063.02.622.622,0,0,0,.078.01c.019,0,.037.007.056.007s.02,0,.031,0,.019,0,.029,0,.028-.008.043-.01a.618.618,0,0,0,.084-.02.59.59,0,0,0,.069-.028.57.57,0,0,0,.072-.041.55.55,0,0,0,.119-.1.55.55,0,0,0,.047-.061c.008-.012.019-.021.026-.033s.005-.02.01-.029.021-.031.028-.048l1.081-2.676a.6.6,0,1,0-1.116-.451l-.555,1.374a8.919,8.919,0,0,1-.327-2.546,7.4,7.4,0,1,1,7.4,7.4.6.6,0,1,0,0,1.2,8.605,8.605,0,1,0,0-17.21Z" transform="translate(0 -3.315)" fill="#fff" stroke="#fff" stroke-width="0.5"/>
      <path id="Path_1735" data-name="Path 1735" d="M24.843,24.455a.6.6,0,0,0,.189.039c.013,0,.027.008.04.008a.6.6,0,0,0,.2-.04.53.53,0,0,0,.053-.025.6.6,0,0,0,.138-.092c.009-.008.022-.011.031-.02l3.759-3.759a.6.6,0,0,0-.852-.852l-3.474,3.474-3.118-1.306a.6.6,0,0,0-.466,1.111l3.491,1.462Z" transform="translate(-14.713 -14.692)" fill="#fff" stroke="#fff" stroke-width="0.5"/>
    </g>
  </g>
</svg>
