<svg xmlns="http://www.w3.org/2000/svg" width="11" height="20" viewBox="0 0 11 20">
  <path id="microophone_glyph" data-name="microophone glyph" d="M9,20H2V19H5V15.974A5.4,5.4,0,0,1,.285,12.025a7.649,7.649,0,0,1-.253-1.651C0,9.8,0,9.212,0,8.645V7H1V8.654c0,.542,0,1.1.031,1.662a6.67,6.67,0,0,0,.217,1.439,4.409,4.409,0,0,0,8.5,0,6.745,6.745,0,0,0,.216-1.439C10,9.778,10,9.24,10,8.672V7h1V8.719c0,.543,0,1.1-.032,1.655a7.631,7.631,0,0,1-.252,1.651A5.4,5.4,0,0,1,6,15.974V19H9v1ZM5.5,14A3.444,3.444,0,0,1,2.182,11.47a4.855,4.855,0,0,1-.161-1.05C2,10.042,2,9.658,2,9.286V4.714c0-.371,0-.755.021-1.134a4.872,4.872,0,0,1,.161-1.05A3.438,3.438,0,0,1,3.886.4a3.4,3.4,0,0,1,.5-.215l.007,0,.007,0a3.445,3.445,0,0,1,2.2,0l.012.005a3.421,3.421,0,0,1,.5.216,3.428,3.428,0,0,1,1.7,2.128,4.872,4.872,0,0,1,.161,1.05C9,3.946,9,4.318,9,4.678V9.322c0,.36,0,.732-.021,1.1a4.855,4.855,0,0,1-.161,1.05A3.442,3.442,0,0,1,5.5,14Zm0-13a2.43,2.43,0,0,0-.726.11l-.065.023a2.49,2.49,0,0,0-.353.151A2.4,2.4,0,0,0,4.02,1.5a2.443,2.443,0,0,0-.876,1.3,3.921,3.921,0,0,0-.125.838C3,3.971,3,4.3,3,4.671V9.329c0,.367,0,.7.019,1.033a3.846,3.846,0,0,0,.126.839,2.44,2.44,0,0,0,4.709,0,3.863,3.863,0,0,0,.126-.839C8,10.032,8,9.7,8,9.373V4.628c0-.325,0-.661-.019-.99A3.938,3.938,0,0,0,7.855,2.8,2.442,2.442,0,0,0,6.98,1.5a2.579,2.579,0,0,0-.335-.215,2.428,2.428,0,0,0-.348-.15l-.07-.024A2.446,2.446,0,0,0,5.5,1Z" fill="#8e8e93"/>
</svg>
