<svg id="barcode-qr" xmlns="http://www.w3.org/2000/svg" width="18" height="18" viewBox="0 0 18 18">
  <path id="Path_1235" data-name="Path 1235" d="M8.285,8.285H0V0H8.285ZM1.506,6.779H6.779V1.506H1.506Z" fill="#fff"/>
  <path id="Path_1236" data-name="Path 1236" d="M21.285,8.285H13V0h8.285ZM14.506,6.779h5.272V1.506H14.506Z" transform="translate(-3.285)" fill="#fff"/>
  <path id="Path_1237" data-name="Path 1237" d="M8.285,21.285H0V13H8.285ZM1.506,19.779H6.779V14.506H1.506Z" transform="translate(0 -3.285)" fill="#fff"/>
  <path id="Path_1238" data-name="Path 1238" d="M21.532,18.272H20.025V14.506H18.519v2.26H14V13h1.506v2.26h1.506V13h4.519Z" transform="translate(-3.532 -3.267)" fill="#fff"/>
  <path id="Path_1239" data-name="Path 1239" d="M21.532,23.013H14V20h1.506v1.506h6.025Z" transform="translate(-3.532 -5.013)" fill="#fff"/>
  <rect id="Rectangle_1912" data-name="Rectangle 1912" width="2.26" height="2.26" transform="translate(2.998 2.998)" fill="#fff"/>
  <rect id="Rectangle_1913" data-name="Rectangle 1913" width="2.26" height="2.26" transform="translate(12.742 2.998)" fill="#fff"/>
  <rect id="Rectangle_1914" data-name="Rectangle 1914" width="2.26" height="2.26" transform="translate(2.998 12.742)" fill="#fff"/>
</svg>
