<svg id="directions-bus" xmlns="http://www.w3.org/2000/svg" width="16.133" height="19.157" viewBox="0 0 16.133 19.157">
  <path id="Path_1361" data-name="Path 1361" d="M38.25,14.116a2.889,2.889,0,0,0,1.008,2.218v1.815a.953.953,0,0,0,1.008,1.008h1.008a.953.953,0,0,0,1.008-1.008V17.141h8.066v1.008a.953.953,0,0,0,1.008,1.008h1.008a.953.953,0,0,0,1.008-1.008V16.334a2.889,2.889,0,0,0,1.008-2.218V4.033C54.383.5,50.753,0,46.316,0S38.25.5,38.25,4.033Zm3.529,1.008a1.512,1.512,0,1,1,1.512-1.512A1.551,1.551,0,0,1,41.779,15.124Zm9.075,0a1.512,1.512,0,1,1,1.512-1.512A1.551,1.551,0,0,1,50.854,15.124Zm1.512-6.05h-12.1V4.033h12.1Z" transform="translate(-38.25 0)" fill="#fff"/>
</svg>
