<svg xmlns="http://www.w3.org/2000/svg" width="14.255" height="20.692" viewBox="0 0 14.255 20.692">
  <g id="facebook-placeholder-for-locate-places-on-maps" transform="translate(-66.905)">
    <path id="Facebook_Places" d="M80.823,5.15a6.446,6.446,0,0,0-.334-.828A7.089,7.089,0,0,0,66.9,6.419V7.3c0,.037.013.368.031.533.258,2.06,1.883,4.249,3.1,6.309,1.306,2.207,2.661,4.378,4,6.548.828-1.416,1.653-2.851,2.462-4.23.22-.4.476-.809.7-1.2.147-.257.428-.515.557-.754,1.306-2.391,3.408-4.8,3.408-7.173V6.364A7.342,7.342,0,0,0,80.823,5.15Zm-6.83,4.433a2.53,2.53,0,0,1-2.422-1.729A2.4,2.4,0,0,1,71.5,7.21V6.64a2.4,2.4,0,0,1,2.569-2.354,2.6,2.6,0,0,1,2.61,2.649A2.672,2.672,0,0,1,73.993,9.583Z" transform="translate(0 0)" fill="#56b948"/>
  </g>
</svg>
