<svg xmlns="http://www.w3.org/2000/svg" width="16" height="14.346" viewBox="0 0 16 14.346">
  <g id="heart" transform="translate(4.44 -28.6)">
    <path id="Path_1405" data-name="Path 1405" d="M22.443,16.4a4.292,4.292,0,0,0-4.183-3.769,6.378,6.378,0,0,0-3.686,1.394A6.314,6.314,0,0,0,10.859,12.6a4.3,4.3,0,0,0-4.183,3.811c-.663,3.438,1.464,8.008,7.69,10.493a.538.538,0,0,0,.414,0C20.994,24.363,23.106,19.807,22.443,16.4Zm-7.87,8.89c-5.468-2.264-6.922-5.432-6.356-8.373.331-1.753,1.109-2.569,2.642-2.569a5.277,5.277,0,0,1,3.507,1.087.535.535,0,0,0,.686,0,4.693,4.693,0,0,1,3.208-1.087c1.533,0,2.389.83,2.734,2.569C21.56,19.827,20.027,22.981,14.573,25.287Z" transform="translate(-11 16)" fill="#fff"/>
  </g>
</svg>
