<svg xmlns="http://www.w3.org/2000/svg" width="13" height="15" viewBox="0 0 13 15">
  <g id="notifications-bell-button" transform="translate(-38.25)">
    <g id="notifications-none" transform="translate(38.25)">
      <path id="Path_1356" data-name="Path 1356" d="M44.75,15a1.519,1.519,0,0,0,1.529-1.5H43.221A1.519,1.519,0,0,0,44.75,15Zm4.971-4.5V6.375A4.847,4.847,0,0,0,45.9,1.65V1.125a1.147,1.147,0,0,0-2.294,0V1.65a4.847,4.847,0,0,0-3.824,4.725V10.5L38.25,12v.75h13V12Zm-1.529.75H41.309V6.375a3.442,3.442,0,0,1,6.882,0Z" transform="translate(-38.25)" fill="#fff"/>
    </g>
  </g>
</svg>
