<svg xmlns="http://www.w3.org/2000/svg" width="21.266" height="21.266" viewBox="0 0 21.266 21.266">
  <g id="Group_5368" data-name="Group 5368" transform="translate(-108.402 -626.842)">
    <path id="Path" d="M.5,1.864H19.882" transform="translate(108.893 631.585)" fill="none" stroke="#9c895d" stroke-miterlimit="10" stroke-width="2"/>
    <g id="Group_346" data-name="Group 346" transform="translate(108.401 626.842)">
      <g id="Rectangle_3" data-name="Rectangle 3" fill="none" stroke-miterlimit="10">
        <path d="M4.922,0H16.345a4.922,4.922,0,0,1,4.922,4.922V16.345a4.922,4.922,0,0,1-4.922,4.922H4.922A4.922,4.922,0,0,1,0,16.345V4.922A4.922,4.922,0,0,1,4.922,0Z" stroke="none"/>
        <path d="M 4.921550750732422 1.999994277954102 C 3.310602188110352 1.999994277954102 2.000001907348633 3.31059455871582 2.000001907348633 4.921545028686523 L 2.000001907348633 16.34476470947266 C 2.000001907348633 17.9557056427002 3.310602188110352 19.26630401611328 4.921550750732422 19.26630401611328 L 16.34481048583984 19.26630401611328 C 17.95576095581055 19.26630401611328 19.26636123657227 17.9557056427002 19.26636123657227 16.34476470947266 L 19.26636123657227 4.921545028686523 C 19.26636123657227 3.31059455871582 17.95576095581055 1.999994277954102 16.34481048583984 1.999994277954102 L 4.921550750732422 1.999994277954102 M 4.921550750732422 -5.7220458984375e-06 L 16.34481048583984 -5.7220458984375e-06 C 19.06291198730469 -5.7220458984375e-06 21.26636123657227 2.203445434570313 21.26636123657227 4.921545028686523 L 21.26636123657227 16.34476470947266 C 21.26636123657227 19.0628547668457 19.06291198730469 21.26630401611328 16.34481048583984 21.26630401611328 L 4.921550750732422 21.26630401611328 C 2.203451156616211 21.26630401611328 1.9073486328125e-06 19.0628547668457 1.9073486328125e-06 16.34476470947266 L 1.9073486328125e-06 4.921545028686523 C 1.9073486328125e-06 2.203445434570313 2.203451156616211 -5.7220458984375e-06 4.921550750732422 -5.7220458984375e-06 Z" stroke="none" fill="#9c895d"/>
      </g>
      <g id="Group_345" data-name="Group 345" transform="translate(4.796 9.747)">
        <rect id="Rectangle_1079" data-name="Rectangle 1079" width="2.832" height="2.832" fill="#9c895d"/>
        <rect id="Rectangle_1082" data-name="Rectangle 1082" width="2.832" height="2.832" transform="translate(4.452)" fill="#9c895d"/>
        <rect id="Rectangle_1084" data-name="Rectangle 1084" width="2.832" height="2.832" transform="translate(8.904)" fill="#9c895d"/>
        <rect id="Rectangle_1080" data-name="Rectangle 1080" width="2.832" height="2.832" transform="translate(0 4.452)" fill="#9c895d"/>
        <rect id="Rectangle_1081" data-name="Rectangle 1081" width="2.832" height="2.832" transform="translate(4.452 4.452)" fill="#9c895d"/>
        <rect id="Rectangle_1083" data-name="Rectangle 1083" width="2.832" height="2.832" transform="translate(8.904 4.452)" fill="#9c895d"/>
      </g>
    </g>
  </g>
</svg>
