<svg xmlns="http://www.w3.org/2000/svg" width="22" height="32" viewBox="0 0 22 32">
  <g id="Group_6446" data-name="Group 6446" transform="translate(-255 -625)">
    <g id="Group_4981" data-name="Group 4981" transform="translate(257.057 626)">
      <g id="Group_347" data-name="Group 347">
        <g id="Group_283" data-name="Group 283" transform="translate(4.097 6.701)">
          <ellipse id="Ellipse_97" data-name="Ellipse 97" cx="1.257" cy="1.315" rx="1.257" ry="1.315" transform="translate(0 0)" fill="#43b7cc"/>
          <ellipse id="Ellipse_98" data-name="Ellipse 98" cx="1.257" cy="1.315" rx="1.257" ry="1.315" transform="translate(3.771 0)" fill="#43b7cc"/>
          <ellipse id="Ellipse_99" data-name="Ellipse 99" cx="1.257" cy="1.315" rx="1.257" ry="1.315" transform="translate(7.542 0)" fill="#43b7cc"/>
        </g>
        <path id="Union_9" data-name="Union 9" d="M14.251,15.526a5.049,5.049,0,0,1-.662.044H5a5,5,0,0,1-5-5V5A5,5,0,0,1,5,0h8.589a5,5,0,0,1,5,5v5.57c0,.03,0,.06,0,.09v7.886Z" fill="none" stroke="#43b7cc" stroke-width="2"/>
      </g>
    </g>
    <g id="Group_5558" data-name="Group 5558" transform="translate(71 -4)">
      <g id="Group_5557" data-name="Group 5557">
        <text id="Chat" transform="translate(195 659.001)" fill="#43b7cc" font-size="10" font-family="ArialMT, Arial"><tspan x="-10.562" y="0">Chat</tspan></text>
      </g>
    </g>
  </g>
</svg>
