<svg xmlns="http://www.w3.org/2000/svg" width="46" height="46" viewBox="0 0 46 46">
  <path id="Exclusion_8" data-name="Exclusion 8" d="M23,46A23,23,0,0,1,6.737,6.737,23,23,0,1,1,39.263,39.263,22.849,22.849,0,0,1,23,46ZM20.514,9h0a6.922,6.922,0,0,0-5.025,1.887l0,0-4.6,4.6C7.452,18.923,8.836,25.9,13.974,31.037c3.114,3.114,7.049,4.972,10.527,4.972a6.918,6.918,0,0,0,5.024-1.886l4.511-4.516.006,0,.008-.009.009-.009.065-.066c3.432-3.443,2.047-10.416-3.087-15.544C27.926,10.86,23.992,9,20.514,9Zm3.945,25.364c-2.994,0-6.47-1.687-9.3-4.513-3.912-3.913-5.538-9.005-3.866-12.109-.007.12-.019.367-.021.5a1.069,1.069,0,0,0,.305.735.745.745,0,0,0,.524.238h.011a.949.949,0,0,0,.84-.952,6.138,6.138,0,0,1,.642-2.751,10.288,10.288,0,0,0,.229,2.726,17.041,17.041,0,0,0,4.746,8.221c3.13,3.13,7.047,5,10.477,5,.108,0,.216-.009.32-.017.06,0,.119-.01.179-.013a5.975,5.975,0,0,1-2.793.627,9.168,9.168,0,0,1-2.134-.267.839.839,0,1,0-.394,1.632,10.876,10.876,0,0,0,2.535.313c.143,0,.286-.008.424-.016l.1-.005A5.865,5.865,0,0,1,24.458,34.363Zm4.6-4.6a11.014,11.014,0,0,1-4.665-1.18,17.166,17.166,0,0,1-4.637-3.331,15.37,15.37,0,0,1-4.291-7.4c-.52-2.425-.092-4.475,1.205-5.773a5.329,5.329,0,0,1,3.874-1.436c3,0,6.474,1.69,9.3,4.521,4.482,4.476,5.866,10.385,3.085,13.171l-.069.069a4.264,4.264,0,0,1-1.054.747A5.946,5.946,0,0,1,29.062,29.763Z" opacity="1"/>
</svg>
