<svg xmlns="http://www.w3.org/2000/svg" width="46" height="46" viewBox="0 0 46 46">
  <path id="Exclusion_4" data-name="Exclusion 4" d="M23,46A23,23,0,0,1,6.737,6.737,23,23,0,1,1,39.263,39.263,22.849,22.849,0,0,1,23,46ZM22.885,6a16.777,16.777,0,0,0-11.929,4.943c-.073.073-.15.151-.223.24a16.9,16.9,0,0,0-4.69,12.932c0,.006,0,.013,0,.02s0,.014,0,.022a.037.037,0,0,1,0,.01,16.571,16.571,0,0,0,4.123,9.847,11.161,11.161,0,0,0,.768.833,16.866,16.866,0,0,0,10.705,5.024c.01,0,.02.033.029.064s.02.064.03.064a6.056,6.056,0,0,0,.6-.041c.2-.02.4-.04.6-.04a16.938,16.938,0,0,0,11.371-4.48,4.519,4.519,0,0,0,.4-.39c.053-.055.1-.108.151-.157a16.971,16.971,0,0,0,.022-23.938c-.236-.231-.512-.5-.8-.742l-.021-.018-.021-.018,0,0A16.611,16.611,0,0,0,24.2,6.053l-.037,0h-.022C23.726,6.016,23.3,6,22.885,6Zm.027,32.165c-.143,0-.288,0-.43-.006a15.151,15.151,0,0,1,4.169-10.871c2.129,2.394,4.152,4.865,6.016,7.345A15.215,15.215,0,0,1,22.912,38.165Zm-2.058-.137h0a15.247,15.247,0,0,1-8.766-4.33l-.057-.059-.039-.04a123.832,123.832,0,0,0,11.3-9.944c.869.9,1.61,1.694,2.266,2.413a16.766,16.766,0,0,0-4.708,11.959ZM33.923,33.6h0c-1.887-2.507-3.936-5.007-6.091-7.431a15.239,15.239,0,0,1,9.913-3.662c.209,0,.421,0,.629.013A18.254,18.254,0,0,1,37.181,28.5a14.959,14.959,0,0,1-3.258,5.1Zm-23-1.232h0A15.041,15.041,0,0,1,7.763,24.9c.047,0,.093,0,.14.005s.1.005.154.005A16.809,16.809,0,0,0,19.8,20.158c.776.748,1.387,1.345,1.921,1.881.163.16.31.306.45.448A122.033,122.033,0,0,1,10.928,32.37Zm15.817-7.407h0c-.758-.83-1.536-1.66-2.311-2.466a120.737,120.737,0,0,0,9.232-10.557c.081.07.137.122.184.167a16.506,16.506,0,0,1,4.378,8.784c-.148,0-.309-.007-.479-.007a16.872,16.872,0,0,0-11,4.08ZM8.06,23.289c-.142,0-.286,0-.429-.006a15.2,15.2,0,0,1,3.792-10.452c2.42,1.925,4.84,4.015,7.193,6.213A15.177,15.177,0,0,1,8.06,23.289ZM23.3,21.331h0l-.164-.168c-.089-.091-.181-.186-.273-.276-.569-.568-1.208-1.193-1.955-1.912a16.812,16.812,0,0,0,4.023-11.21,15.153,15.153,0,0,1,7.476,3.145A118.977,118.977,0,0,1,23.3,21.33Zm-3.576-3.469h0c-2.341-2.187-4.753-4.273-7.17-6.2A15.22,15.22,0,0,1,22.886,7.624c.114,0,.234,0,.349.006l.071,0a15.214,15.214,0,0,1-3.579,10.229Z" opacity="1"/>
</svg>
