<svg xmlns="http://www.w3.org/2000/svg" width="46" height="46" viewBox="0 0 46 46">
  <path id="Exclusion_3" data-name="Exclusion 3" d="M23,46A23,23,0,0,1,6.737,6.737,23,23,0,1,1,39.263,39.263,22.849,22.849,0,0,1,23,46Zm.291-40a17.414,17.414,0,0,0-9.254,2.665,16.9,16.9,0,0,0-3.056,2.477,2.156,2.156,0,0,0-.154.184c-.026.033-.051.066-.076.1A17.029,17.029,0,0,0,6.012,23.844l.033.589A16.8,16.8,0,0,0,10.2,34.4c.209.251.451.515.761.832a16.9,16.9,0,0,0,10.763,4.92c.414.031.837.047,1.26.047a17.122,17.122,0,0,0,6.875-1.446.594.594,0,0,0,.079-.041,16.482,16.482,0,0,0,4.486-2.952,5.823,5.823,0,0,0,.5-.467l.049-.049a16.783,16.783,0,0,0,4.749-9.258s0-.009,0-.014,0-.011,0-.017a16.989,16.989,0,0,0-4.718-14.719,10.957,10.957,0,0,0-.814-.758A16.746,16.746,0,0,0,30.07,7.782a16.835,16.835,0,0,0-5.839-1.616,2.691,2.691,0,0,1-.44-.083A2.106,2.106,0,0,0,23.3,6Zm-.314,32.563c-.378,0-.761-.014-1.138-.042a15.264,15.264,0,0,1-9.721-4.441c-.284-.29-.495-.52-.684-.746a15.249,15.249,0,0,1-2.344-3.559,15,15,0,0,1-1.418-5.44l-.032-.555a15.149,15.149,0,0,1,4.306-11.22A.729.729,0,0,0,12,12.5a1.288,1.288,0,0,1,.1-.111l.027-.027A15.394,15.394,0,0,1,22.94,7.877c.111,0,.221,0,.332,0,.289,0,.575.017.84.036a15.119,15.119,0,0,1,9.014,3.794,2.48,2.48,0,0,1,.339.363c.079.1.161.2.267.306A13.851,13.851,0,0,1,38.049,22.1a4.8,4.8,0,0,1,.062,3.009c-.039.2-.079.4-.112.6,0,.006.012.012.025.019s.027.014.026.02a15.137,15.137,0,0,1-4.259,8.336l-.046.06a4.39,4.39,0,0,1-.4.379A15.043,15.043,0,0,1,29.2,37.25a.764.764,0,0,0-.076.04A15.509,15.509,0,0,1,22.977,38.563ZM24.84,17.726a2.847,2.847,0,1,0,2.845,2.844A2.85,2.85,0,0,0,24.84,17.726Zm6.769-1.661a2.847,2.847,0,1,0,2.01,4.86,2.849,2.849,0,0,0,0-4.024A2.815,2.815,0,0,0,31.609,16.065Zm-15.346-5.05a.818.818,0,0,0-.414.113,14.15,14.15,0,0,0-5.427,5.819.816.816,0,0,0,1.46.73,12.515,12.515,0,0,1,4.8-5.144.815.815,0,0,0,.288-1.117A.819.819,0,0,0,16.262,11.015Zm10.266-.025A2.845,2.845,0,1,0,28.54,15.85a2.849,2.849,0,0,0,0-4.023A2.816,2.816,0,0,0,26.528,10.991ZM19.5,9.655a.83.83,0,0,0-.2.025c-.3.077-.587.166-.867.265a.816.816,0,0,0,.272,1.585.8.8,0,0,0,.272-.047c.249-.087.5-.163.733-.224a.815.815,0,0,0-.206-1.6ZM24.84,21.789a1.215,1.215,0,1,1,1.213-1.218A1.22,1.22,0,0,1,24.84,21.789Zm6.77-1.673a1.209,1.209,0,0,1-.855-2.066,1.208,1.208,0,0,1,1.711,0,1.2,1.2,0,0,1-.856,2.063Zm-5.08-5.078a1.2,1.2,0,0,1-.854-2.062,1.208,1.208,0,0,1,1.71,0,1.2,1.2,0,0,1-.856,2.06Z" opacity="1"/>
</svg>
