<svg width="15.779" height="14.531" xmlns="http://www.w3.org/2000/svg">

 <g>
  <title>background</title>
  <rect fill="none" id="canvas_background" height="402" width="582" y="-1" x="-1"/>
 </g>
 <g>
  <title>Layer 1</title>
  <g stroke="null" id="list-numbers">
   <path stroke="#000000" stroke-opacity="0" fill="#ffffff" d="m0.699224,3.43044l0,-0.479l0.455505,-0.042c0.074456,-0.006 0.087598,-0.03 0.087598,-0.121l0,-2.112c0,-0.073 -0.015767,-0.109 -0.069206,-0.127l-0.466013,-0.109l0.058688,-0.5l1.271911,0l0,2.847c0,0.1 0.00525,0.115 0.087598,0.121l0.437982,0.042l0,0.48l-1.864063,0z" id="Path_1633"/>
   <path stroke="null" fill="#ffffff" d="m0.303554,8.904l0,-0.563l0.749548,-0.792c0.564702,-0.593 0.805001,-0.835 0.805001,-1.179c0,-0.344 -0.100741,-0.387 -0.396493,-0.387s-0.295752,0 -0.436235,0.538l-0.761562,-0.071c0.005545,-0.962 0.682079,-1.119 1.268963,-1.119c0.866924,0 1.173767,0.4 1.173767,0.968s-0.363221,0.944 -0.771729,1.367l-0.632171,0.654l0.823486,0c0.055454,0 0.078559,-0.012 0.092423,-0.073l0.078559,-0.478l0.592429,0l0,1.137l-2.585985,0l0,-0.002z" id="Path_1634"/>
   <path stroke="null" fill="#ffffff" d="m2.1899,12.422a0.78837,0.853 0 0 1 0.73938,0.931c0,0.8 -0.55453,1.174 -1.35307,1.174a1.84845,2 0 0 1 -1.35399,-0.552l0.44733,-0.532a1.11554,1.207 0 0 0 0.83827,0.4c0.31331,0 0.58134,-0.121 0.58134,-0.544c0,-0.369 -0.21257,-0.52 -0.55454,-0.52a2.29023,2.478 0 0 0 -0.41405,0.042l0,-0.6l0.27727,-0.036c0.40204,-0.054 0.62015,-0.266 0.62015,-0.653c0,-0.23 -0.09242,-0.417 -0.4085,-0.417s-0.44733,0.109 -0.44733,0.538l-0.76618,-0.073c0,-0.956 0.66544,-1.119 1.25232,-1.119c0.86046,0 1.19041,0.357 1.19041,1a0.87524,0.947 0 0 1 -0.64696,0.944l0,0.017l-0.00185,0z" id="Path_1635"/>
  </g>
  <line y1="1.732" x2="4.194" y2="1.732" stroke-linecap="round" stroke="#ffffff" fill="none" x1="14.586" id="Line_479"/>
  <line y1="7.274" x2="4.194" y2="7.274" stroke-linecap="round" stroke="#ffffff" fill="none" x1="11.122" id="Line_480"/>
  <line y1="12.816" x2="4.194" y2="12.816" stroke-linecap="round" stroke="#ffffff" fill="none" x1="15.278" id="Line_481"/>
 </g>
</svg>