<svg xmlns="http://www.w3.org/2000/svg" width="120" height="120" viewBox="0 0 120 120">
  <g id="Symbol_175_1" data-name="Symbol 175 – 1" transform="translate(-42 -37)">
    <circle id="Ellipse_351" data-name="Ellipse 351" cx="60" cy="60" r="60" transform="translate(42 37)"/>
    <g id="Group_5012" data-name="Group 5012" transform="translate(68.205 59.128)">
      <path id="Path_949" data-name="Path 949" d="M53.855,42.569c0,9.575-4.841,13.34-14.524,13.34-9.79,0-14.631-4.626-14.631-12.157v-.861H34.92v1.076c0,1.614,1.506,3.12,4.2,3.12,3.12,0,3.55-2.9,3.55-4.411V20.3H53.855V42.569Z" transform="translate(-24.7 -20.3)" fill="#fff"/>
      <path id="Path_950" data-name="Path 950" d="M66.2,20.3H77.82L91.913,55.157H79.649l-1.614-4.949H65.663l-1.721,4.949H52Zm9.682,22.592L72.225,31.919h-.108L68.137,42.892Z" transform="translate(-22.63 -20.3)" fill="#fff"/>
      <path id="Path_951" data-name="Path 951" d="M24.7,57H45.033c6.025,0,11.3,3.335,11.3,10.005,0,3.658-1.614,7.423-5.164,8.714,2.9,1.076,4.518,4.411,5.056,8.714.323,2.152.753,5.272.968,7.423H46.539C46.324,89.7,46.324,88.2,46,86.047c-.43-3.335-.645-6.347-4.949-6.347h-5.7V91.857H24.7V57ZM35.351,72.169h5.594c2.044,0,4.734-.323,4.734-3.443,0-2.152-1.183-3.443-5.272-3.443H35.351Z" transform="translate(-24.7 -17.517)" fill="#fff"/>
      <path id="Path_952" data-name="Path 952" d="M74.059,56.2c10.758,0,17.859,7.638,17.859,18.289s-7.1,18.289-17.859,18.289C61.364,92.778,56.2,85.14,56.2,74.489S63.408,56.2,74.059,56.2Zm0,27.864c2.8,0,6.993-1.829,6.993-9.575s-4.2-9.575-6.993-9.575-6.993,1.829-6.993,9.575S71.369,84.064,74.059,84.064Z" transform="translate(-22.312 -17.578)" fill="#fff"/>
    </g>
  </g>
</svg>
