<svg xmlns="http://www.w3.org/2000/svg" width="21" height="18" viewBox="0 0 21 18">
  <g id="Medical-kit_grey" data-name="Medical-kit grey" transform="translate(0 -36.546)">
    <g id="Group_6282" data-name="Group 6282" transform="translate(0 36.546)">
      <path id="Path_1569" data-name="Path 1569" d="M.8,110.43a2.607,2.607,0,0,0-.8,1.911V122.4a2.607,2.607,0,0,0,.8,1.911,2.607,2.607,0,0,0,1.911.8H3.1V109.632H2.709A2.607,2.607,0,0,0,.8,110.43Z" transform="translate(0 -107.111)" fill="#c5c4c4"/>
      <path id="Path_1570" data-name="Path 1570" d="M111.15,37.671a1.1,1.1,0,0,0-.321-.8,1.051,1.051,0,0,0-.78-.328h-6.611a1.051,1.051,0,0,0-.78.328,1.1,1.1,0,0,0-.321.8v1.875H100.5v15h12.486v-15H111.15Zm-7.345.375h5.876v1.5h-5.876Zm7.345,10.125a.37.37,0,0,1-.1.27.354.354,0,0,1-.264.105h-2.571v2.625a.369.369,0,0,1-.1.269.353.353,0,0,1-.264.105h-2.2a.354.354,0,0,1-.264-.105.369.369,0,0,1-.1-.269V48.546H102.7a.354.354,0,0,1-.264-.105.369.369,0,0,1-.1-.27v-2.25a.369.369,0,0,1,.1-.27.353.353,0,0,1,.264-.105h2.571V42.921a.369.369,0,0,1,.1-.27.353.353,0,0,1,.264-.105h2.2a.353.353,0,0,1,.264.105.37.37,0,0,1,.1.27v2.625h2.571a.354.354,0,0,1,.264.105.37.37,0,0,1,.1.27v2.25h0Z" transform="translate(-96.243 -36.546)" fill="#c5c4c4"/>
      <path id="Path_1571" data-name="Path 1571" d="M440.835,110.43a2.607,2.607,0,0,0-1.911-.8h-.387v15.479h.387a2.725,2.725,0,0,0,2.709-2.709V112.341A2.608,2.608,0,0,0,440.835,110.43Z" transform="translate(-420.633 -107.111)" fill="#c5c4c4"/>
    </g>
  </g>
</svg>
