<svg xmlns="http://www.w3.org/2000/svg" width="20.589" height="21.462" viewBox="0 0 20.589 21.462"><g transform="translate(1 1)" opacity="0.149"><g transform="translate(4.097 6.701)"><ellipse cx="1.257" cy="1.315" rx="1.257" ry="1.315" transform="translate(0 0)"/><ellipse cx="1.257" cy="1.315" rx="1.257" ry="1.315" transform="translate(3.771 0)"/><ellipse cx="1.257" cy="1.315" rx="1.257" ry="1.315" transform="translate(7.542 0)"/></g><path d="M14.251,15.526a5.049,5.049,0,0,1-.662.044H5a5,5,0,0,1-5-5V5A5,5,0,0,1,5,0h8.589a5,5,0,0,1,5,5v5.57c0,.03,0,.06,0,.09v7.886Z" fill="none" stroke="#00674C" stroke-width="2"/></g></svg>