<svg id="warning" xmlns="http://www.w3.org/2000/svg" width="46" height="46" viewBox="0 0 46 46">
  <path id="Path_1353" data-name="Path 1353" d="M23,0A23,23,0,1,0,46,23,23.026,23.026,0,0,0,23,0Zm0,44.231A21.231,21.231,0,1,1,44.231,23,21.256,21.256,0,0,1,23,44.231Z" fill="#fff"/>
  <path id="Path_1354" data-name="Path 1354" d="M25.885,10a.884.884,0,0,0-.885.885V30.346a.885.885,0,1,0,1.769,0V10.885A.884.884,0,0,0,25.885,10Z" transform="translate(-2.885 -1.154)" fill="#fff"/>
  <g id="Ellipse_613" data-name="Ellipse 613" transform="translate(21 32)" fill="#fff" stroke="#fff" stroke-width="1">
    <circle cx="2" cy="2" r="2" stroke="none"/>
    <circle cx="2" cy="2" r="1.5" fill="none"/>
  </g>
</svg>
