<svg xmlns="http://www.w3.org/2000/svg" xmlns:xlink="http://www.w3.org/1999/xlink" width="21.813" height="18.904" viewBox="0 0 21.813 18.904">
  <defs>
    <clipPath id="clip-path">
      <path id="Path_270" data-name="Path 270" d="M0-34.1H21.813V-53H0Z" transform="translate(0 53.001)" fill="#0a4e93"/>
    </clipPath>
  </defs>
  <g id="Group_393" data-name="Group 393" clip-path="url(#clip-path)">
    <g id="Group_392" data-name="Group 392" transform="translate(0 0)">
      <path id="Path_269" data-name="Path 269" d="M0-17.078c.032,1.034.646,1.519,1.874,1.519h14.8l-5.526,4.944a3.873,3.873,0,0,0-.356.323,1.314,1.314,0,0,0-.291.323,1.378,1.378,0,0,0-.323.872A1.484,1.484,0,0,0,11.7-7.642a1.5,1.5,0,0,0,1.1-.517l.485-.453L20.649-15.3l.291-.291a2.042,2.042,0,0,0,.872-1.487A2.041,2.041,0,0,0,20.94-18.6l-.291-.259-7.368-6.722-.485-.452a1.5,1.5,0,0,0-1.1-.517,1.49,1.49,0,0,0-1.519,1.487,1.36,1.36,0,0,0,.323.84,1.4,1.4,0,0,0,.291.356,3.518,3.518,0,0,1,.356.291l5.526,4.944H1.874c-1.228,0-1.842.485-1.874,1.551" transform="translate(0 26.546)" fill="#0a4e93"/>
    </g>
  </g>
</svg>