<svg xmlns="http://www.w3.org/2000/svg" width="20" height="20" viewBox="0 0 20 20">
  <g id="Group_6186" data-name="Group 6186" transform="translate(-57 -62)">
    <g id="images-1" transform="translate(59 64)" fill="#68e048">
      <path d="M 8 17 C 3.03737998008728 17 -1 12.96261978149414 -1 8 C -1 3.03737998008728 3.03737998008728 -1 8 -1 C 12.96261978149414 -1 17 3.03737998008728 17 8 C 17 12.96261978149414 12.96261978149414 17 8 17 Z" stroke="none"/>
      <path d="M 8 0 C 3.581720352172852 0 0 3.581720352172852 0 8 C 0 12.41827964782715 3.581720352172852 16 8 16 C 12.41827964782715 16 16 12.41827964782715 16 8 C 16 3.581720352172852 12.41827964782715 0 8 0 M 8 -2 C 13.51401996612549 -2 18 2.485980033874512 18 8 C 18 13.51401996612549 13.51401996612549 18 8 18 C 2.485980033874512 18 -2 13.51401996612549 -2 8 C -2 2.485980033874512 2.485980033874512 -2 8 -2 Z" stroke="none" fill="#fff"/>
    </g>
    <g id="Group_6183" data-name="Group 6183" transform="translate(63.867 70)">
      <path id="Path_142" data-name="Path 142" d="M136-138.182l2.812,2.836,4.3-4.335" transform="translate(-136 139.681)" fill="none" stroke="#fff" stroke-linecap="round" stroke-width="1"/>
    </g>
  </g>
</svg>
