<svg xmlns="http://www.w3.org/2000/svg" width="18.388" height="18.388" viewBox="0 0 18.388 18.388">
  <g id="Group_6257" data-name="Group 6257" transform="translate(-1654.684 -1129)">
    <g id="Group_6247" data-name="Group 6247" transform="translate(1654.684 1129)">
      <path id="Path_1396" data-name="Path 1396" d="M18.127,46.5a.346.346,0,0,0-.157-.039.412.412,0,0,0-.3.131l-.836.836a.392.392,0,0,0-.117.287v3.317a2.1,2.1,0,0,1-2.089,2.09H3.761A2.012,2.012,0,0,1,2.285,52.5a2.012,2.012,0,0,1-.614-1.476V40.162a2.012,2.012,0,0,1,.614-1.476,2.012,2.012,0,0,1,1.476-.614H14.627a2.321,2.321,0,0,1,.588.078.42.42,0,0,0,.117.026.413.413,0,0,0,.3-.13l.64-.64a.406.406,0,0,0,.117-.379.4.4,0,0,0-.235-.3,3.6,3.6,0,0,0-1.528-.327H3.761A3.623,3.623,0,0,0,1.1,37.5,3.623,3.623,0,0,0,0,40.162V51.028a3.623,3.623,0,0,0,1.1,2.658,3.622,3.622,0,0,0,2.658,1.1H14.627a3.769,3.769,0,0,0,3.762-3.761V46.875A.379.379,0,0,0,18.127,46.5Z" transform="translate(0 -36.401)"/>
    </g>
    <text id="_5" data-name="5" transform="translate(1664 1143)" font-size="13" font-family="Helvetica-Bold, Helvetica" font-weight="700" letter-spacing="0.05em"><tspan x="-3.615" y="0">5</tspan></text>
  </g>
</svg>
