<svg id="Group_5013" data-name="Group 5013" xmlns="http://www.w3.org/2000/svg" width="30" height="30" viewBox="0 0 30 30">
  <circle id="Ellipse_351" data-name="Ellipse 351" cx="15" cy="15" r="15" transform="translate(0)"/>
  <g id="Group_5012" data-name="Group 5012" transform="translate(6.551 5.532)">
    <path id="Path_949" data-name="Path 949" d="M31.989,25.867c0,2.394-1.21,3.335-3.631,3.335-2.447,0-3.658-1.157-3.658-3.039v-.215h2.555v.269c0,.4.377.78,1.049.78.78,0,.888-.726.888-1.1V20.3h2.8v5.567Z" transform="translate(-24.7 -20.3)" fill="#fff"/>
    <path id="Path_950" data-name="Path 950" d="M55.55,20.3h2.9l3.523,8.714H58.912l-.4-1.237H55.416l-.43,1.237H52Zm2.421,5.648L57.056,23.2h-.027l-1,2.743Z" transform="translate(-44.658 -20.3)" fill="#fff"/>
    <path id="Path_951" data-name="Path 951" d="M24.7,57h5.083a2.533,2.533,0,0,1,2.824,2.5,2.206,2.206,0,0,1-1.291,2.179,2.45,2.45,0,0,1,1.264,2.179c.081.538.188,1.318.242,1.856H30.16c-.054-.538-.054-.914-.134-1.452-.108-.834-.161-1.587-1.237-1.587H27.363v3.039H24.7Zm2.663,3.792h1.4c.511,0,1.183-.081,1.183-.861,0-.538-.3-.861-1.318-.861H27.363Z" transform="translate(-24.7 -47.129)" fill="#fff"/>
    <path id="Path_952" data-name="Path 952" d="M60.665,56.2a4.574,4.574,0,0,1,0,9.144c-3.174,0-4.465-1.91-4.465-4.572A4.321,4.321,0,0,1,60.665,56.2Zm0,6.966c.7,0,1.748-.457,1.748-2.394s-1.049-2.394-1.748-2.394-1.748.457-1.748,2.394S59.992,63.166,60.665,63.166Z" transform="translate(-47.728 -46.545)" fill="#fff"/>
  </g>
</svg>
