<svg xmlns="http://www.w3.org/2000/svg" width="20.975" height="18" viewBox="0 0 20.975 18">
  <g id="Group_6233" data-name="Group 6233" transform="translate(19838 23903)">
    <rect id="Rectangle_2078" data-name="Rectangle 2078" width="15" height="15" transform="translate(-19835 -23900)" fill="#fff"/>
    <g id="medical-kit1" transform="translate(-19838 -23939.547)">
      <g id="Group_6232" data-name="Group 6232" transform="translate(0 36.546)">
        <path id="Path_1412" data-name="Path 1412" d="M.772,110.4A2.523,2.523,0,0,0,0,112.254v9.738a2.523,2.523,0,0,0,.772,1.849,2.523,2.523,0,0,0,1.849.772H3V109.632H2.622A2.523,2.523,0,0,0,.772,110.4Z" transform="translate(0 -106.636)" fill="#dcdc31"/>
        <path id="Path_1413" data-name="Path 1413" d="M111.362,37.67a1.119,1.119,0,0,0-1.124-1.124H103.5a1.119,1.119,0,0,0-1.124,1.124v1.873H100.5V54.524h12.734V39.542h-1.873V37.67Zm-7.491.375h5.993v1.5h-5.993Zm7.491,10.113a.36.36,0,0,1-.374.375h-2.622v2.622a.361.361,0,0,1-.374.374h-2.247a.36.36,0,0,1-.374-.374V48.532h-2.622a.36.36,0,0,1-.375-.375V45.91a.36.36,0,0,1,.374-.375h2.622V42.913a.361.361,0,0,1,.375-.375h2.247a.361.361,0,0,1,.375.375v2.622h2.622a.36.36,0,0,1,.374.375v2.247h0Z" transform="translate(-96.38 -36.546)" fill="#dcdc31"/>
        <path id="Path_1414" data-name="Path 1414" d="M440.761,110.4a2.523,2.523,0,0,0-1.849-.773h-.375v14.982h.375a2.638,2.638,0,0,0,2.622-2.622v-9.738A2.524,2.524,0,0,0,440.761,110.4Z" transform="translate(-420.559 -106.636)" fill="#dcdc31"/>
      </g>
    </g>
  </g>
</svg>
