<svg xmlns="http://www.w3.org/2000/svg" width="32" height="35.001" viewBox="0 0 32 35.001"><g transform="translate(-103 -626)"><text transform="translate(119 659.001)" fill="#00674c" font-size="10" font-family="ArialMT, Arial"><tspan x="-15.286" y="0">Events</tspan></text><g transform="translate(0 -0.842)"><path d="M.5,1.864H19.882" transform="translate(108.893 631.585)" fill="none" stroke="#00674c" stroke-miterlimit="10" stroke-width="2"/><g transform="translate(108.401 626.842)"><g fill="none" stroke-miterlimit="10"><path d="M4.922,0H16.345a4.922,4.922,0,0,1,4.922,4.922V16.345a4.922,4.922,0,0,1-4.922,4.922H4.922A4.922,4.922,0,0,1,0,16.345V4.922A4.922,4.922,0,0,1,4.922,0Z" stroke="none"/><path d="M 4.921550750732422 1.999994277954102 C 3.310602188110352 1.999994277954102 2.000001907348633 3.31059455871582 2.000001907348633 4.921545028686523 L 2.000001907348633 16.34476470947266 C 2.000001907348633 17.9557056427002 3.310602188110352 19.26630401611328 4.921550750732422 19.26630401611328 L 16.34481048583984 19.26630401611328 C 17.95576095581055 19.26630401611328 19.26636123657227 17.9557056427002 19.26636123657227 16.34476470947266 L 19.26636123657227 4.921545028686523 C 19.26636123657227 3.31059455871582 17.95576095581055 1.999994277954102 16.34481048583984 1.999994277954102 L 4.921550750732422 1.999994277954102 M 4.921550750732422 -5.7220458984375e-06 L 16.34481048583984 -5.7220458984375e-06 C 19.06291198730469 -5.7220458984375e-06 21.26636123657227 2.203445434570313 21.26636123657227 4.921545028686523 L 21.26636123657227 16.34476470947266 C 21.26636123657227 19.0628547668457 19.06291198730469 21.26630401611328 16.34481048583984 21.26630401611328 L 4.921550750732422 21.26630401611328 C 2.203451156616211 21.26630401611328 1.9073486328125e-06 19.0628547668457 1.9073486328125e-06 16.34476470947266 L 1.9073486328125e-06 4.921545028686523 C 1.9073486328125e-06 2.203445434570313 2.203451156616211 -5.7220458984375e-06 4.921550750732422 -5.7220458984375e-06 Z" stroke="none" fill="#00674c"/></g><g transform="translate(4.796 9.747)"><rect width="2.832" height="2.832" fill="#00674c"/><rect width="2.832" height="2.832" transform="translate(4.452)" fill="#00674c"/><rect width="2.832" height="2.832" transform="translate(8.904)" fill="#00674c"/><rect width="2.832" height="2.832" transform="translate(0 4.452)" fill="#00674c"/><rect width="2.832" height="2.832" transform="translate(4.452 4.452)" fill="#00674c"/><rect width="2.832" height="2.832" transform="translate(8.904 4.452)" fill="#00674c"/></g></g></g></g></svg>