<svg xmlns="http://www.w3.org/2000/svg" width="17.649" height="16.263" viewBox="0 0 17.649 16.263">
  <g id="run-shoes" transform="translate(-0.25 -0.965)">
    <path id="Path_1250" data-name="Path 1250" d="M11.7,4.681l1.778,5.543,2.6,1.944a2.2,2.2,0,0,1,.676,3.01l-.381.616a1.426,1.426,0,0,1-1.981.456L2.67,8.493a1.471,1.471,0,0,1-.45-2.007L4.962,2.072c.292-.469,1.083-.5,1.235.036A3.969,3.969,0,0,0,8.3,4.541a5.079,5.079,0,0,0,3.4.14Z" transform="translate(-0.078)" fill="none" stroke="#fff" stroke-linecap="square" stroke-miterlimit="10" stroke-width="1.5"/>
    <line id="Line_299" data-name="Line 299" x2="9.224" transform="translate(1 16.473)" fill="none" stroke="#fff" stroke-linecap="square" stroke-miterlimit="10" stroke-width="1.5"/>
    <line id="Line_300" data-name="Line 300" x2="2.767" transform="translate(1 12.836)" fill="none" stroke="#fff" stroke-linecap="square" stroke-miterlimit="10" stroke-width="1.5"/>
  </g>
</svg>
