<svg id="Group_6225" data-name="Group 6225" xmlns="http://www.w3.org/2000/svg" width="14.463" height="14.463" viewBox="0 0 14.463 14.463">
  <path id="Path_1396" data-name="Path 1396" d="M14.257,44.341a.272.272,0,0,0-.124-.031.324.324,0,0,0-.236.1l-.657.657a.308.308,0,0,0-.092.226v2.609A1.648,1.648,0,0,1,11.5,49.549H2.958A1.583,1.583,0,0,1,1.8,49.066a1.582,1.582,0,0,1-.483-1.161V39.359A1.583,1.583,0,0,1,1.8,38.2a1.583,1.583,0,0,1,1.161-.483H11.5a1.825,1.825,0,0,1,.462.062.33.33,0,0,0,.092.021.325.325,0,0,0,.236-.1l.5-.5a.319.319,0,0,0,.092-.3.311.311,0,0,0-.185-.236,2.828,2.828,0,0,0-1.2-.257H2.958a2.849,2.849,0,0,0-2.09.868A2.85,2.85,0,0,0,0,39.359v8.546A2.849,2.849,0,0,0,.868,50a2.849,2.849,0,0,0,2.09.868H11.5a2.964,2.964,0,0,0,2.959-2.958V44.639A.3.3,0,0,0,14.257,44.341Z" transform="translate(0 -36.401)" fill="#fff"/>
  <path id="Path_1397" data-name="Path 1397" d="M81.953,55.817l-.683-.707a.483.483,0,0,0-.708,0l-4.017,4.159-1.633-1.691a.483.483,0,0,0-.708,0l-.683.707a.525.525,0,0,0,0,.733l2.669,2.764a.483.483,0,0,0,.708,0l5.053-5.233a.525.525,0,0,0,0-.733Z" transform="translate(-69.589 -51.043)" fill="#fff"/>
</svg>
