<svg xmlns="http://www.w3.org/2000/svg" width="44" height="44" viewBox="0 0 44 44">
  <g id="Rectangle_1549" data-name="Rectangle 1549" transform="translate(1 1)">
    <path id="Path_1" data-name="Path 1" d="M21.724,0h0A20.276,20.276,0,0,1,42,20.276v1.448A20.276,20.276,0,0,1,21.724,42H20.276A20.276,20.276,0,0,1,0,21.724H0A21.724,21.724,0,0,1,21.724,0Z" fill="#fdb913"/>
    <path id="Path_2" data-name="Path 2" d="M21.729-.5h0A20.771,20.771,0,0,1,42.5,20.271v1.458A20.771,20.771,0,0,1,21.729,42.5H20.271A20.771,20.771,0,0,1-.5,21.729h0A22.229,22.229,0,0,1,21.729-.5Z" fill="none" stroke="#fff" stroke-width="1"/>
  </g>
</svg>
