<svg xmlns="http://www.w3.org/2000/svg" width="44.053" height="41.424" viewBox="0 0 44.053 41.424">
  <path id="Path_110" data-name="Path 110" d="M21.026,10.513A10.513,10.513,0,1,1,10.513,21.026,10.544,10.544,0,0,1,21.026,10.513ZM36.8,39.424H5.257a5.189,5.189,0,0,1-3.68-1.577A5.189,5.189,0,0,1,0,34.167V10.513A5.272,5.272,0,0,1,5.257,5.257H9.462L13.4,1.314A4.352,4.352,0,0,1,16.558,0h9.2a4.221,4.221,0,0,1,2.891,1.314L32.59,5.257H36.8a5.272,5.272,0,0,1,5.257,5.257V34.167A5.272,5.272,0,0,1,36.8,39.424Z" transform="translate(1 1)" fill="none" stroke="#fff" stroke-width="2" fill-rule="evenodd"/>
</svg>
