<svg xmlns="http://www.w3.org/2000/svg" xmlns:xlink="http://www.w3.org/1999/xlink" width="20" height="20" viewBox="0 0 20 20">
  <defs>
    <clipPath id="clip-path">
      <rect width="20" height="20" fill="none"/>
    </clipPath>
  </defs>
  <g id="Attendance_Not_Going" data-name="Attendance Not Going" clip-path="url(#clip-path)">
    <g id="Group_5339" data-name="Group 5339" transform="translate(2 2)">
      <g id="images-1" fill="#666">
        <path d="M 8 17 C 3.03737998008728 17 -1 12.96261978149414 -1 8 C -1 3.03737998008728 3.03737998008728 -1 8 -1 C 12.96261978149414 -1 17 3.03737998008728 17 8 C 17 12.96261978149414 12.96261978149414 17 8 17 Z" stroke="none"/>
        <path d="M 8 0 C 3.581720352172852 0 0 3.581720352172852 0 8 C 0 12.41827964782715 3.581720352172852 16 8 16 C 12.41827964782715 16 16 12.41827964782715 16 8 C 16 3.581720352172852 12.41827964782715 0 8 0 M 8 -2 C 13.51401996612549 -2 18 2.485980033874512 18 8 C 18 13.51401996612549 13.51401996612549 18 8 18 C 2.485980033874512 18 -2 13.51401996612549 -2 8 C -2 2.485980033874512 2.485980033874512 -2 8 -2 Z" stroke="none" fill="#eff1f5"/>
      </g>
    </g>
    <g id="Group_295" data-name="Group 295" transform="translate(7 7.422)">
      <path id="Path_143" data-name="Path 143" d="M196-143l5.674,5.688" transform="translate(-195.612 143)" fill="none" stroke="#eff1f5" stroke-linecap="round" stroke-width="1"/>
      <path id="Path_144" data-name="Path 144" d="M0,0,5.674,5.687" transform="translate(0 5.674) rotate(-90)" fill="none" stroke="#eff1f5" stroke-linecap="round" stroke-width="1"/>
    </g>
  </g>
</svg>
