<svg xmlns="http://www.w3.org/2000/svg" width="40.709" height="40.709" viewBox="0 0 40.709 40.709">
  <g id="Group_6246" data-name="Group 6246" transform="translate(-167 -585)">
    <g id="Ellipse_614" data-name="Ellipse 614" transform="translate(167 585)" fill="#fff" stroke="#44b7cc" stroke-width="2">
      <circle cx="20.355" cy="20.355" r="20.355" stroke="none"/>
      <circle cx="20.355" cy="20.355" r="19.355" fill="none"/>
    </g>
    <path id="Path_1415" data-name="Path 1415" d="M7.1,3.46v8.752H9.131V3.46L13.2,7.531l1.425-1.425-5.8-5.8A.984.984,0,0,0,7.4.305l-5.8,5.8L3.025,7.531Z" transform="translate(178.871 596.103)" fill="#43b7cc"/>
    <path id="Path_1416" data-name="Path 1416" d="M14.248,14.053H2.035V11H0v4.071a.962.962,0,0,0,1.018,1.018H15.266a.962.962,0,0,0,1.018-1.018V11H14.248Z" transform="translate(178.843 596.298)" fill="#43b7cc"/>
  </g>
</svg>
