<svg xmlns="http://www.w3.org/2000/svg" width="20" height="20" viewBox="0 0 20 20">
  <g id="Attendance_No_Response" data-name="Attendance No Response" transform="translate(8575 13841)">
    <g id="Group_5455" data-name="Group 5455" transform="translate(-8614 -14191)">
      <g id="images-1" transform="translate(41 352)" fill="#ff9545">
        <path d="M 8 17 C 3.03737998008728 17 -1 12.96261978149414 -1 8 C -1 3.03737998008728 3.03737998008728 -1 8 -1 C 12.96261978149414 -1 17 3.03737998008728 17 8 C 17 12.96261978149414 12.96261978149414 17 8 17 Z" stroke="none"/>
        <path d="M 8 0 C 3.581720352172852 0 0 3.581720352172852 0 8 C 0 12.41827964782715 3.581720352172852 16 8 16 C 12.41827964782715 16 16 12.41827964782715 16 8 C 16 3.581720352172852 12.41827964782715 0 8 0 M 8 -2 C 13.51401996612549 -2 18 2.485980033874512 18 8 C 18 13.51401996612549 13.51401996612549 18 8 18 C 2.485980033874512 18 -2 13.51401996612549 -2 8 C -2 2.485980033874512 2.485980033874512 -2 8 -2 Z" stroke="none" fill="#fff"/>
      </g>
    </g>
    <g id="feedback" transform="translate(-8572.711 -13836.937)">
      <rect id="Rectangle_1830" data-name="Rectangle 1830" width="1.001" height="4.612" transform="translate(7.378 2.602)" fill="#fff"/>
      <circle id="Ellipse_478" data-name="Ellipse 478" cx="0.834" cy="0.834" r="0.834" transform="translate(6.71 8.413)" fill="#fff"/>
    </g>
  </g>
</svg>
