<svg xmlns="http://www.w3.org/2000/svg" width="20" height="29.059" viewBox="0 0 20 29.059">
  <g id="Group_6138" data-name="Group 6138" transform="translate(-700 -3512)">
    <path id="Path_1166" data-name="Path 1166" d="M12,34.059H8c-.552,0-1-.685-1-1.529v-26C7,5.685,7.448,5,8,5h4c.552,0,1,.685,1,1.529v26C13,33.374,12.552,34.059,12,34.059Z" transform="translate(693 3507)" fill="#9c895d"/>
    <path id="Path_1167" data-name="Path 1167" d="M34,34.059H30c-.552,0-1-.685-1-1.529v-26C29,5.685,29.448,5,30,5h4c.552,0,1,.685,1,1.529v26C35,33.374,34.552,34.059,34,34.059Z" transform="translate(685 3507)" fill="#9c895d"/>
  </g>
</svg>
