<svg xmlns="http://www.w3.org/2000/svg" width="35.002" height="46" viewBox="0 0 35.002 46">
  <g id="Group_6211" data-name="Group 6211" transform="translate(-217 -401)">
    <path id="Path_1388" data-name="Path 1388" d="M37.656,21H26.215a.715.715,0,0,0,0,1.43h11.44a.715.715,0,1,0,0-1.43Z" transform="translate(207.783 399.714)" fill="#fff"/>
    <path id="Path_1389" data-name="Path 1389" d="M20.773,18.156,17.7,20.617l-.977-.977a.715.715,0,0,0-1.011,1.011l1.43,1.43a.714.714,0,0,0,.952.053l3.575-2.86a.715.715,0,0,0-.893-1.117Z" transform="translate(208.633 400.569)" fill="#fff"/>
    <path id="Path_1390" data-name="Path 1390" d="M37.656,32H26.215a.715.715,0,1,0,0,1.43h11.44a.715.715,0,1,0,0-1.43Z" transform="translate(207.783 396.579)" fill="#fff"/>
    <path id="Path_1391" data-name="Path 1391" d="M20.773,29.156,17.7,31.617l-.977-.977a.715.715,0,0,0-1.011,1.011l1.43,1.43a.714.714,0,0,0,.952.053l3.575-2.86a.715.715,0,0,0-.893-1.117Z" transform="translate(208.633 397.435)" fill="#fff"/>
    <path id="Path_1392" data-name="Path 1392" d="M37.656,43H26.215a.715.715,0,1,0,0,1.43h11.44a.715.715,0,1,0,0-1.43Z" transform="translate(207.783 393.444)" fill="#fff"/>
    <path id="Path_1393" data-name="Path 1393" d="M20.773,40.156,17.7,42.617l-.977-.977a.715.715,0,0,0-1.011,1.011l1.43,1.43a.714.714,0,0,0,.952.053l3.575-2.86a.715.715,0,0,0-.893-1.117Z" transform="translate(208.633 394.3)" fill="#fff"/>
    <g id="Union_55" data-name="Union 55" transform="translate(-16275 -16227.002)" fill="none">
      <path d="M16495.09,16674a3.045,3.045,0,0,1-3.09-3v-33a3.046,3.046,0,0,1,3.09-3H16502v-2a1,1,0,0,1,1-1h3a4,4,0,0,1,8.006,0h3a1,1,0,0,1,1,1v2h5.912a3.048,3.048,0,0,1,3.09,3v33a3.047,3.047,0,0,1-3.09,3Z" stroke="none"/>
      <path d="M 16523.912109375 16672.001953125 C 16524.513671875 16672.001953125 16525.001953125 16671.552734375 16525.001953125 16671.001953125 L 16525.001953125 16638.001953125 C 16525.001953125 16637.451171875 16524.513671875 16637.001953125 16523.912109375 16637.001953125 L 16518 16637.001953125 L 16516 16637.001953125 L 16516 16635.001953125 L 16516 16634.001953125 L 16514.00390625 16634.001953125 L 16512.00390625 16634.001953125 L 16512.00390625 16632.001953125 C 16512.00390625 16630.8984375 16511.107421875 16630.001953125 16510.00390625 16630.001953125 C 16508.8984375 16630.001953125 16507.998046875 16630.8984375 16507.998046875 16632.001953125 L 16507.998046875 16634.001953125 L 16505.998046875 16634.001953125 L 16503.998046875 16634.001953125 L 16503.998046875 16635.001953125 L 16503.998046875 16637.001953125 L 16501.998046875 16637.001953125 L 16495.08984375 16637.001953125 C 16494.48828125 16637.001953125 16494 16637.451171875 16494 16638.001953125 L 16494 16671.001953125 C 16494 16671.552734375 16494.48828125 16672.001953125 16495.08984375 16672.001953125 L 16523.912109375 16672.001953125 M 16523.912109375 16674.001953125 L 16495.08984375 16674.001953125 C 16493.3828125 16674.001953125 16492 16672.66015625 16492 16671.001953125 L 16492 16638.001953125 C 16492 16636.345703125 16493.3828125 16635.001953125 16495.08984375 16635.001953125 L 16501.998046875 16635.001953125 L 16501.998046875 16633.001953125 C 16501.998046875 16632.4453125 16502.4453125 16632.001953125 16502.998046875 16632.001953125 L 16505.998046875 16632.001953125 C 16505.998046875 16629.79296875 16507.79296875 16628.001953125 16510.00390625 16628.001953125 C 16512.212890625 16628.001953125 16514.00390625 16629.79296875 16514.00390625 16632.001953125 L 16517 16632.001953125 C 16517.552734375 16632.001953125 16518 16632.4453125 16518 16633.001953125 L 16518 16635.001953125 L 16523.912109375 16635.001953125 C 16525.615234375 16635.001953125 16527.001953125 16636.345703125 16527.001953125 16638.001953125 L 16527.001953125 16671.001953125 C 16527.001953125 16672.66015625 16525.615234375 16674.001953125 16523.912109375 16674.001953125 Z" stroke="none" fill="#fff"/>
    </g>
    <line id="Line_407" data-name="Line 407" y2="4" transform="translate(228 408.5)" fill="none" stroke="#fff" stroke-width="2"/>
    <line id="Line_408" data-name="Line 408" y2="4" transform="translate(242 408.5)" fill="none" stroke="#fff" stroke-width="2"/>
    <line id="Line_409" data-name="Line 409" x2="14" transform="translate(228 412.5)" fill="none" stroke="#fff" stroke-linecap="round" stroke-width="2"/>
  </g>
</svg>
