<svg xmlns="http://www.w3.org/2000/svg" width="15.575" height="15.424" viewBox="0 0 15.575 15.424"><g transform="translate(-0.5 -1.224)"><path d="M9.476,19l1.631,4.05a1.3,1.3,0,0,1-.718,1.683h0a1.3,1.3,0,0,1-1.684-.718L6.667,19" transform="translate(-2.914 -8.741)" fill="none" stroke="#00674c" stroke-miterlimit="10" stroke-width="1"/><path d="M7.316,4.429h-3.4A2.915,2.915,0,0,0,1,7.344H1a2.915,2.915,0,0,0,2.915,2.915h3.4l5.344,2.429V2Z" transform="translate(0)" fill="none" stroke="#00674c" stroke-linecap="square" stroke-miterlimit="10" stroke-width="1"/><path d="M28,10a1.458,1.458,0,1,1,0,2.915" transform="translate(-13.882 -4.113)" fill="none" stroke="#00674c" stroke-miterlimit="10" stroke-width="1"/></g></svg>