<svg id="Group_5368" data-name="Group 5368" xmlns="http://www.w3.org/2000/svg" width="27.193" height="27.192" viewBox="0 0 27.193 27.192">
  <path id="Path" d="M.5,1.864H25.283" transform="translate(0.767 6.584)" fill="none" stroke="#fff" stroke-miterlimit="10" stroke-width="1.5"/>
  <g id="Group_346" data-name="Group 346" transform="translate(0)">
    <g id="Rectangle_3" data-name="Rectangle 3" fill="none" stroke-miterlimit="10">
      <path d="M6.293,0H20.9a6.293,6.293,0,0,1,6.293,6.293V20.9A6.293,6.293,0,0,1,20.9,27.192H6.293A6.293,6.293,0,0,1,0,20.9V6.293A6.293,6.293,0,0,1,6.293,0Z" stroke="none"/>
      <path d="M 6.293006896972656 1.500003814697266 C 3.650136947631836 1.500003814697266 1.499996185302734 3.65013313293457 1.499996185302734 6.293003082275391 L 1.499996185302734 20.89947319030762 C 1.499996185302734 23.54233360290527 3.650136947631836 25.69246292114258 6.293006896972656 25.69246292114258 L 20.89952659606934 25.69246292114258 C 23.54239654541016 25.69246292114258 25.69253730773926 23.54233360290527 25.69253730773926 20.89947319030762 L 25.69253730773926 6.293003082275391 C 25.69253730773926 3.65013313293457 23.54239654541016 1.500003814697266 20.89952659606934 1.500003814697266 L 6.293006896972656 1.500003814697266 M 6.293006896972656 3.814697265625e-06 L 20.89952659606934 3.814697265625e-06 C 24.37505722045898 3.814697265625e-06 27.19253730773926 2.817472457885742 27.19253730773926 6.293003082275391 L 27.19253730773926 20.89947319030762 C 27.19253730773926 24.37499237060547 24.37505722045898 27.19246292114258 20.89952659606934 27.19246292114258 L 6.293006896972656 27.19246292114258 C 2.817476272583008 27.19246292114258 -3.814697265625e-06 24.37499237060547 -3.814697265625e-06 20.89947319030762 L -3.814697265625e-06 6.293003082275391 C -3.814697265625e-06 2.817472457885742 2.817476272583008 3.814697265625e-06 6.293006896972656 3.814697265625e-06 Z" stroke="none" fill="#fff"/>
    </g>
    <g id="Group_345" data-name="Group 345" transform="translate(6.132 12.463)">
      <rect id="Rectangle_1079" data-name="Rectangle 1079" width="3.622" height="3.622" fill="#fff"/>
      <rect id="Rectangle_1082" data-name="Rectangle 1082" width="3.622" height="3.622" transform="translate(5.693)" fill="#fff"/>
      <rect id="Rectangle_1084" data-name="Rectangle 1084" width="3.622" height="3.622" transform="translate(11.385)" fill="#fff"/>
      <rect id="Rectangle_1080" data-name="Rectangle 1080" width="3.622" height="3.622" transform="translate(0 5.693)" fill="#fff"/>
      <rect id="Rectangle_1081" data-name="Rectangle 1081" width="3.622" height="3.622" transform="translate(5.693 5.693)" fill="#fff"/>
      <rect id="Rectangle_1083" data-name="Rectangle 1083" width="3.622" height="3.622" transform="translate(11.385 5.693)" fill="#fff"/>
    </g>
  </g>
</svg>
