<svg xmlns="http://www.w3.org/2000/svg" width="25.6" height="25.6" viewBox="0 0 25.6 25.6">
  <g id="Attendance_Maybe" data-name="Attendance Maybe" transform="translate(-0.7 -0.7)">
    <g id="images-1" transform="translate(2.7 2.7)" fill="#5c6577">
      <path d="M 10.80000114440918 22.60000038146973 C 7.648101329803467 22.60000038146973 4.684861183166504 21.37259101867676 2.456141233444214 19.14386177062988 C 0.227411150932312 16.91514205932617 -0.9999988675117493 13.95190143585205 -0.9999988675117493 10.80000114440918 C -0.9999988675117493 7.648101329803467 0.227411150932312 4.684861183166504 2.456141233444214 2.456141233444214 C 4.684861183166504 0.227411150932312 7.648101329803467 -0.9999988675117493 10.80000114440918 -0.9999988675117493 C 13.95190143585205 -0.9999988675117493 16.91514205932617 0.227411150932312 19.14386177062988 2.456141233444214 C 21.37259101867676 4.684861183166504 22.60000038146973 7.648101329803467 22.60000038146973 10.80000114440918 C 22.60000038146973 13.95190143585205 21.37259101867676 16.91514205932617 19.14386177062988 19.14386177062988 C 16.91514205932617 21.37259101867676 13.95190143585205 22.60000038146973 10.80000114440918 22.60000038146973 Z" stroke="none"/>
      <path d="M 10.80000114440918 1.9073486328125e-06 C 4.835321426391602 1.9073486328125e-06 1.9073486328125e-06 4.835321426391602 1.9073486328125e-06 10.80000114440918 C 1.9073486328125e-06 16.76468086242676 4.835321426391602 21.60000038146973 10.80000114440918 21.60000038146973 C 16.76468086242676 21.60000038146973 21.60000038146973 16.76468086242676 21.60000038146973 10.80000114440918 C 21.60000038146973 4.835321426391602 16.76468086242676 1.9073486328125e-06 10.80000114440918 1.9073486328125e-06 M 10.80000114440918 -1.999998092651367 C 14.2190113067627 -1.999998092651367 17.43337059020996 -0.6685695648193359 19.85097122192383 1.749031066894531 C 22.2685718536377 4.166631698608398 23.60000038146973 7.380990982055664 23.60000038146973 10.80000114440918 C 23.60000038146973 14.2190113067627 22.2685718536377 17.43337059020996 19.85097122192383 19.85097122192383 C 17.43337059020996 22.2685718536377 14.2190113067627 23.60000038146973 10.80000114440918 23.60000038146973 C 7.380990982055664 23.60000038146973 4.166631698608398 22.2685718536377 1.749031066894531 19.85097122192383 C -0.6685695648193359 17.43337059020996 -1.999998092651367 14.2190113067627 -1.999998092651367 10.80000114440918 C -1.999998092651367 7.380990982055664 -0.6685695648193359 4.166631698608398 1.749031066894531 1.749031066894531 C 4.166631698608398 -0.6685695648193359 7.380990982055664 -1.999998092651367 10.80000114440918 -1.999998092651367 Z" stroke="none" fill="#5c6577"/>
    </g>
    <path id="Path_1241" data-name="Path 1241" d="M6.75,0" transform="translate(10.125 10.125)" fill="none" stroke="#a4a9b3" stroke-linecap="round" stroke-width="1"/>
    <g id="Group_295" data-name="Group 295" transform="translate(8 8.125)" opacity="0.66">
      <path id="Path_143" data-name="Path 143" d="M196-143l10.958,10.984" transform="translate(-196.251 143)" fill="none" stroke="#fff" stroke-linecap="round" stroke-width="2"/>
      <path id="Path_144" data-name="Path 144" d="M0,0,10.958,10.984" transform="translate(0 10.958) rotate(-90)" fill="none" stroke="#fff" stroke-linecap="round" stroke-width="2"/>
    </g>
  </g>
</svg>
