<svg xmlns="http://www.w3.org/2000/svg" width="46" height="46" viewBox="0 0 46 46">
  <path id="Exclusion_9" data-name="Exclusion 9" d="M23,46A23,23,0,0,1,6.737,6.737,23,23,0,1,1,39.263,39.263,22.849,22.849,0,0,1,23,46ZM11.582,10.187s0,.016,0,.063,0,.062,0,.064a.2.2,0,0,0,0,.029.23.23,0,0,1,0,.04v.008c0,.014,0,.023,0,.025-.147.132-.294.281-.437.425l-.07.071a3.306,3.306,0,0,0-.23.256,16.937,16.937,0,0,0-3.181,4.464,18.486,18.486,0,0,0-1.113,3.325c-.147.551-.3,1.121-.477,1.691,0,.4-.016.806-.032,1.2-.023.567-.046,1.154-.025,1.742l.076.58a16.56,16.56,0,0,0,1.1,4.862l.005,0,0,0,0,0,.006.006h0l0,0,0,.006c.135.369.3.747.491,1.155a17,17,0,0,0,2.614,3.961c.044.051.079.09.113.124.186.222.394.448.617.671A17.1,17.1,0,0,0,14.621,37.7c.06.034.121.067.182.1l.006,0a16.859,16.859,0,0,0,7,2.083c.4.03.8.046,1.21.046.188,0,.387,0,.608-.012h.006a16.831,16.831,0,0,0,5.513-1.1c.284-.109.548-.218.808-.333.024-.011.049-.024.076-.039a16.721,16.721,0,0,0,4.5-2.965c.013-.011.027-.024.04-.037l.024-.023a5.312,5.312,0,0,0,.422-.4l-.046-.049a14.98,14.98,0,0,0,4.286-7.547V27.6h.141a15.944,15.944,0,0,0,.4-1.8s0-.02.007-.035.007-.032.008-.037A16.92,16.92,0,0,0,40,21.764c0-.131-.011-.281-.022-.406a16.871,16.871,0,0,0-4.873-10.4c-.276-.281-.55-.536-.814-.758a17.1,17.1,0,0,0-2.585-1.886A16.4,16.4,0,0,0,30.168,7.5a16.728,16.728,0,0,0-4.711-1.374c-.377-.052-.748-.091-1.134-.12-.043,0-.086,0-.134,0-.139,0-.279.013-.4.024h-.011c-.134.012-.261.023-.379.023h-.013c-.207,0-.416-.015-.619-.026C22.5,6.014,22.231,6,21.964,6a3.85,3.85,0,0,0-1.8.377h-.008a11.419,11.419,0,0,0-6.03,2.092c-.652.4-1.281.84-1.888,1.265-.226.158-.438.306-.652.453ZM22.706,38.3h0c-.283-.006-.536-.018-.773-.036a15.068,15.068,0,0,1-5.944-1.679l-.427-5.8,2.9-2.582L24.7,29.434l1.332,3.5L22.706,38.3Zm11.4-4.674h0L27.42,31.982l-1.228-3.229,3.092-5.544,4.554-.444,3.918,4.64a15.28,15.28,0,0,1-3.65,6.219Zm-19.59-4.1h0L8.6,28.071a14.9,14.9,0,0,1-.839-4l-.032-.554a15.565,15.565,0,0,1,.087-2.19l5.369-2.187,3.492,1.671.739,6.141-2.895,2.575Zm14.527-7.934h0l-4.28-4.606.574-4.091,6.305-2.566a.272.272,0,0,0,.051-.03c.011-.008.022-.015.034-.022a15.24,15.24,0,0,1,1.5,1.157,9.79,9.79,0,0,1,.72.669,15.2,15.2,0,0,1,2.821,3.915L33.577,21.15l-4.535.442ZM17.417,19.356h0L13.9,17.672,13.415,11.1a.188.188,0,0,0-.009-.042.264.264,0,0,1-.008-.029A14.782,14.782,0,0,1,14.982,9.9a15.1,15.1,0,0,1,5-1.993l3.777,4.471L23.153,16.7l-5.736,2.658Z" opacity="1"/>
</svg>
