<svg xmlns="http://www.w3.org/2000/svg" width="20.589" height="21.462" viewBox="0 0 20.589 21.462">
  <g id="Group_4981" data-name="Group 4981" transform="translate(1 1)">
    <g id="Group_347" data-name="Group 347">
      <g id="Group_283" data-name="Group 283" transform="translate(4.097 6.701)">
        <ellipse id="Ellipse_97" data-name="Ellipse 97" cx="1.257" cy="1.315" rx="1.257" ry="1.315" transform="translate(0 0)" fill="#0A4E93"/>
        <ellipse id="Ellipse_98" data-name="Ellipse 98" cx="1.257" cy="1.315" rx="1.257" ry="1.315" transform="translate(3.771 0)" fill="#0A4E93"/>
        <ellipse id="Ellipse_99" data-name="Ellipse 99" cx="1.257" cy="1.315" rx="1.257" ry="1.315" transform="translate(7.542 0)" fill="#0A4E93"/>
      </g>
      <path id="Union_9" data-name="Union 9" d="M14.251,15.526a5.049,5.049,0,0,1-.662.044H5a5,5,0,0,1-5-5V5A5,5,0,0,1,5,0h8.589a5,5,0,0,1,5,5v5.57c0,.03,0,.06,0,.09v7.886Z" fill="none" stroke="#0A4E93" stroke-width="2"/>
    </g>
  </g>
</svg>
